Garima-Regular.ufo
<glyph name="uni1204" format="2">
  <advance width="697"/>
  <unicode hex="1204"/>
  <outline>
    <contour>
      <point x="356.0" y="64" type="curve" smooth="yes"/>
      <point x="356.0" y="82"/>
      <point x="387.1025641025641" y="158.0"/>
      <point x="395" y="158" type="curve" smooth="yes"/>
      <point x="442" y="158.0"/>
      <point x="492" y="146"/>
      <point x="511" y="135" type="curve" smooth="yes"/>
      <point x="518" y="131"/>
      <point x="522.0" y="124.0"/>
      <point x="522" y="108" type="curve" smooth="yes"/>
      <point x="522.0" y="90"/>
      <point x="517" y="76"/>
      <point x="505" y="57" type="curve" smooth="yes"/>
      <point x="494" y="40"/>
      <point x="483" y="37"/>
      <point x="466" y="37" type="curve" smooth="yes"/>
      <point x="438.0" y="37.0"/>
      <point x="399.7450980392157" y="39.0"/>
      <point x="379" y="43" type="curve" smooth="yes"/>
      <point x="361" y="46"/>
      <point x="356" y="53"/>
    </contour>
    <contour>
      <point x="263.0" y="48" type="curve" smooth="yes"/>
      <point x="263" y="27"/>
      <point x="276" y="10"/>
      <point x="309" y="3" type="curve" smooth="yes"/>
      <point x="344.14070351758795" y="-6.0"/>
      <point x="445" y="-18.0"/>
      <point x="498" y="-18.0" type="curve" smooth="yes"/>
      <point x="536.0" y="-18.0"/>
      <point x="558" y="-8"/>
      <point x="575" y="14" type="curve" smooth="yes"/>
      <point x="596" y="41"/>
      <point x="608.0" y="86.34751773049645"/>
      <point x="608" y="115" type="curve" smooth="yes"/>
      <point x="608.0" y="145.1153846153846"/>
      <point x="598.0" y="162.96153846153845"/>
      <point x="576" y="173" type="curve" smooth="yes"/>
      <point x="526" y="195"/>
      <point x="418" y="211"/>
      <point x="349" y="215" type="curve"/>
      <point x="401" y="183" type="line"/>
      <point x="463.16660045188524" y="331.16373107699314"/>
      <point x="568.0" y="525.5217391304348"/>
      <point x="568" y="587" type="curve" smooth="yes"/>
      <point x="568" y="617"/>
      <point x="548" y="637"/>
      <point x="514" y="637" type="curve" smooth="yes"/>
      <point x="468" y="637"/>
      <point x="448" y="615"/>
      <point x="445" y="587" type="curve"/>
      <point x="457" y="581"/>
      <point x="463" y="572"/>
      <point x="463" y="553" type="curve" smooth="yes"/>
      <point x="463.0" y="518.0354609929078"/>
      <point x="437" y="437"/>
      <point x="398" y="393" type="curve" smooth="yes"/>
      <point x="366.56819080397116" y="356.6569706170917"/>
      <point x="317.3881578947368" y="331.0"/>
      <point x="258" y="331.0" type="curve" smooth="yes"/>
      <point x="216.0" y="331.0"/>
      <point x="191.0" y="348.53246753246754"/>
      <point x="191.0" y="406" type="curve" smooth="yes"/>
      <point x="191" y="495"/>
      <point x="233" y="552"/>
      <point x="233" y="566" type="curve" smooth="yes"/>
      <point x="233" y="604"/>
      <point x="165" y="629"/>
      <point x="127" y="629" type="curve" smooth="yes"/>
      <point x="92" y="629"/>
      <point x="81" y="607"/>
      <point x="87" y="587" type="curve"/>
      <point x="112" y="579"/>
      <point x="125.0" y="564.0"/>
      <point x="125.0" y="540" type="curve" smooth="yes"/>
      <point x="125.0" y="502.0"/>
      <point x="102.0" y="421.0"/>
      <point x="102.0" y="382" type="curve" smooth="yes"/>
      <point x="102.0" y="309.0"/>
      <point x="136.96226415094338" y="276.0"/>
      <point x="211" y="276.0" type="curve" smooth="yes"/>
      <point x="265.0" y="276.0"/>
      <point x="333" y="289"/>
      <point x="406" y="332" type="curve"/>
      <point x="395" y="357" type="line"/>
      <point x="320" y="176"/>
      <point x="263.0" y="91"/>
    </contour>
  </outline>
</glyph>
<glyph name="uni1205" format="2">
  <advance width="741"/>
  <unicode hex="1205"/>
  <outline>
    <contour>
      <point x="273" y="32" type="curve" smooth="yes"/>
      <point x="351" y="32"/>
      <point x="413" y="60"/>
      <point x="454" y="96" type="curve"/>
      <point x="401" y="103" type="line"/>
      <point x="432" y="81"/>
      <point x="443" y="77"/>
      <point x="461" y="77" type="curve" smooth="yes"/>
      <point x="480" y="77"/>
      <point x="499" y="83"/>
      <point x="518" y="134" type="curve" smooth="yes"/>
      <point x="589" y="328"/>
      <point x="660" y="494"/>
      <point x="660" y="552" type="curve" smooth="yes"/>
      <point x="660" y="589"/>
      <point x="639" y="611"/>
      <point x="595" y="611" type="curve" smooth="yes"/>
      <point x="563" y="611"/>
      <point x="538" y="596"/>
      <point x="533" y="560" type="curve"/>
      <point x="545" y="554"/>
      <point x="561" y="544"/>
      <point x="561" y="517" type="curve" smooth="yes"/>
      <point x="561" y="452"/>
      <point x="479" y="211"/>
      <point x="426" y="152" type="curve" smooth="yes"/>
      <point x="393" y="115"/>
      <point x="353" y="99"/>
      <point x="307" y="99" type="curve" smooth="yes"/>
      <point x="264" y="99"/>
      <point x="239" y="120"/>
      <point x="239" y="157" type="curve" smooth="yes"/>
      <point x="239" y="219"/>
      <point x="277" y="307"/>
      <point x="277" y="342" type="curve" smooth="yes"/>
      <point x="277" y="359"/>
      <point x="266" y="369"/>
      <point x="242" y="369" type="curve" smooth="yes"/>
      <point x="223" y="369" type="line" smooth="yes"/>
      <point x="203" y="369"/>
      <point x="196" y="376"/>
      <point x="196" y="391" type="curve" smooth="yes"/>
      <point x="196" y="429"/>
      <point x="207" y="473"/>
      <point x="219" y="505" type="curve"/>
      <point x="243" y="508"/>
      <point x="253" y="520"/>
      <point x="253" y="539" type="curve" smooth="yes"/>
      <point x="253" y="571"/>
      <point x="191" y="610"/>
      <point x="144" y="610" type="curve" smooth="yes"/>
      <point x="105" y="610"/>
      <point x="96" y="582"/>
      <point x="102" y="560" type="curve"/>
      <point x="126" y="552"/>
      <point x="138" y="543"/>
      <point x="138" y="524" type="curve" smooth="yes"/>
      <point x="138" y="476"/>
      <point x="107" y="397"/>
      <point x="107" y="365" type="curve" smooth="yes"/>
      <point x="107" y="348"/>
      <point x="117" y="333"/>
      <point x="148" y="333" type="curve" smooth="yes"/>
      <point x="158" y="333" type="line" smooth="yes"/>
      <point x="178" y="333"/>
      <point x="183" y="327"/>
      <point x="183" y="309" type="curve" smooth="yes"/>
      <point x="183" y="281"/>
      <point x="154" y="186"/>
      <point x="154" y="144" type="curve" smooth="yes"/>
      <point x="154" y="62"/>
      <point x="217" y="32"/>
    </contour>
  </outline>
</glyph>
<glyph name="uni120C" format="2">
  <advance width="922"/>
  <unicode hex="120C"/>
  <outline>
    <contour>
      <point x="594.0" y="62" type="curve" smooth="yes"/>
      <point x="594.0" y="86.0"/>
      <point x="618" y="158.0"/>
      <point x="625" y="158.0" type="curve" smooth="yes"/>
      <point x="670" y="158"/>
      <point x="727" y="147"/>
      <point x="749" y="135" type="curve" smooth="yes"/>
      <point x="756" y="131"/>
      <point x="760.0" y="124.0"/>
      <point x="760" y="108" type="curve" smooth="yes"/>
      <point x="760.0" y="87"/>
      <point x="754" y="64"/>
      <point x="738" y="48" type="curve" smooth="yes"/>
      <point x="731" y="41"/>
      <point x="723" y="37.0"/>
      <point x="706" y="37" type="curve" smooth="yes"/>
      <point x="681.0" y="37.0"/>
      <point x="636" y="38.0"/>
      <point x="614" y="43" type="curve" smooth="yes"/>
      <point x="602" y="45"/>
      <point x="594" y="50"/>
    </contour>
    <contour>
      <point x="629" y="175" type="line"/>
      <point x="642" y="232"/>
      <point x="655.0" y="294.0"/>
      <point x="655.0" y="337" type="curve" smooth="yes"/>
      <point x="655.0" y="532.6521739130435"/>
      <point x="486.30044843049325" y="607.0"/>
      <point x="370" y="607" type="curve" smooth="yes"/>
      <point x="327" y="607"/>
      <point x="313" y="589"/>
      <point x="313" y="563" type="curve" smooth="yes"/>
      <point x="313" y="553"/>
      <point x="317" y="539"/>
      <point x="325" y="531" type="curve"/>
      <point x="337" y="535"/>
      <point x="365" y="542"/>
      <point x="389" y="533" type="curve"/>
      <point x="351" y="572" type="line"/>
      <point x="171.2130709097948" y="509.359305249114"/>
      <point x="91.0" y="288.0"/>
      <point x="91" y="48" type="curve" smooth="yes"/>
      <point x="91" y="10"/>
      <point x="114" y="-5"/>
      <point x="140" y="-5" type="curve" smooth="yes"/>
      <point x="163" y="-5"/>
      <point x="185" y="1"/>
      <point x="198" y="14" type="curve"/>
      <point x="194" y="24"/>
      <point x="190" y="49"/>
      <point x="190" y="68" type="curve" smooth="yes"/>
      <point x="190.0" y="359.0"/>
      <point x="316.0" y="518.0"/>
      <point x="400" y="518" type="curve" smooth="yes"/>
      <point x="467.27184466019423" y="518.0"/>
      <point x="569" y="464"/>
      <point x="569.0" y="331" type="curve" smooth="yes"/>
      <point x="569.0" y="237"/>
      <point x="501.0" y="107"/>
      <point x="501.0" y="51" type="curve" smooth="yes"/>
      <point x="501" y="24"/>
      <point x="515" y="10"/>
      <point x="553" y="2" type="curve" smooth="yes"/>
      <point x="581" y="-4.0"/>
      <point x="680" y="-18.0"/>
      <point x="726" y="-18.0" type="curve" smooth="yes"/>
      <point x="769.0" y="-18.0"/>
      <point x="797" y="-11"/>
      <point x="813" y="13" type="curve" smooth="yes"/>
      <point x="832" y="42"/>
      <point x="846.0" y="86"/>
      <point x="846" y="115" type="curve" smooth="yes"/>
      <point x="846.0" y="145.1153846153846"/>
      <point x="836.0" y="162.96153846153845"/>
      <point x="814" y="173" type="curve" smooth="yes"/>
      <point x="764.0" y="195.0"/>
      <point x="656.0" y="211.0"/>
      <point x="587" y="215" type="curve"/>
    </contour>
  </outline>
</glyph>
<glyph name="uni120E" format="2">
  <advance width="1110"/>
  <unicode hex="120E"/>
  <outline>
    <contour>
      <point x="395" y="531" type="curve"/>
      <point x="407" y="535"/>
      <point x="435" y="542"/>
      <point x="459" y="533" type="curve"/>
      <point x="421" y="572" type="line"/>
      <point x="200" y="495"/>
      <point x="91" y="288"/>
      <point x="91" y="48" type="curve" smooth="yes"/>
      <point x="91" y="10"/>
      <point x="114" y="-5"/>
      <point x="140" y="-5" type="curve" smooth="yes"/>
      <point x="163" y="-5"/>
      <point x="185" y="1"/>
      <point x="198" y="14" type="curve"/>
      <point x="194" y="24"/>
      <point x="190" y="49"/>
      <point x="190" y="68" type="curve" smooth="yes"/>
      <point x="190" y="359"/>
      <point x="342" y="518"/>
      <point x="470" y="518" type="curve" smooth="yes"/>
      <point x="511" y="518"/>
      <point x="573" y="464"/>
      <point x="573" y="369" type="curve" smooth="yes"/>
      <point x="573" y="276"/>
      <point x="544" y="136"/>
      <point x="544" y="46" type="curve" smooth="yes"/>
      <point x="544" y="11"/>
      <point x="564" y="-7"/>
      <point x="596" y="-7" type="curve" smooth="yes"/>
      <point x="618" y="-7"/>
      <point x="641" y="6"/>
      <point x="651" y="22" type="curve"/>
      <point x="617" y="104"/>
      <point x="663" y="275"/>
      <point x="663" y="379" type="curve" smooth="yes"/>
      <point x="663" y="531"/>
      <point x="531" y="607"/>
      <point x="440" y="607" type="curve" smooth="yes"/>
      <point x="397" y="607"/>
      <point x="383" y="589"/>
      <point x="383" y="563" type="curve" smooth="yes"/>
      <point x="383" y="553"/>
      <point x="387" y="539"/>
    </contour>
    <contour>
      <point x="1027.0" y="448.0" type="curve" smooth="yes"/>
      <point x="1027.0" y="501.02127659574467"/>
      <point x="988.0" y="537.0"/>
      <point x="909" y="537" type="curve" smooth="yes"/>
      <point x="832" y="537.0"/>
      <point x="692" y="501"/>
      <point x="585" y="475" type="curve"/>
      <point x="606" y="424" type="line"/>
      <point x="635" y="431"/>
      <point x="662" y="440"/>
      <point x="729" y="454" type="curve"/>
      <point x="706" y="458" type="line"/>
      <point x="726.0" y="370"/>
      <point x="839" y="324"/>
      <point x="906.0" y="324.0" type="curve" smooth="yes"/>
      <point x="969.0" y="324.0"/>
      <point x="1027.0" y="380.2689075630252"/>
    </contour>
    <contour>
      <point x="888" y="479" type="curve" smooth="yes"/>
      <point x="928.0" y="479.0"/>
      <point x="941.0" y="470.219512195122"/>
      <point x="941.0" y="443.0" type="curve" smooth="yes"/>
      <point x="941.0" y="415.64150943396226"/>
      <point x="922.0" y="385.0"/>
      <point x="895.0" y="385.0" type="curve" smooth="yes"/>
      <point x="854" y="385"/>
      <point x="791.0" y="415.0"/>
      <point x="791" y="447" type="curve" smooth="yes"/>
      <point x="791.0" y="466"/>
      <point x="839" y="479"/>
    </contour>
  </outline>
</glyph>
<glyph name="uni1214" format="2">
  <advance width="1075"/>
  <unicode hex="1214"/>
  <outline>
    <contour>
      <point x="345" y="7" type="curve"/>
      <point x="391" y="11"/>
      <point x="463" y="10"/>
      <point x="493" y="3" type="curve"/>
      <point x="511" y="26"/>
      <point x="507" y="76"/>
      <point x="460" y="76" type="curve" smooth="yes"/>
      <point x="420" y="76"/>
      <point x="371" y="73"/>
      <point x="351" y="68" type="curve"/>
      <point x="332" y="58"/>
      <point x="328" y="23"/>
    </contour>
    <contour>
      <point x="481" y="49" type="line"/>
      <point x="497" y="230"/>
      <point x="597" y="484"/>
      <point x="617" y="536" type="curve"/>
      <point x="636" y="537"/>
      <point x="650" y="547"/>
      <point x="650" y="562" type="curve" smooth="yes"/>
      <point x="650" y="591"/>
      <point x="605" y="637"/>
      <point x="540" y="637" type="curve" smooth="yes"/>
      <point x="494" y="637"/>
      <point x="487" y="605"/>
      <point x="493" y="585" type="curve"/>
      <point x="519" y="577"/>
      <point x="529" y="568"/>
      <point x="529" y="549" type="curve" smooth="yes"/>
      <point x="529" y="473"/>
      <point x="387" y="124"/>
      <point x="381" y="39" type="curve"/>
    </contour>
    <contour>
      <point x="761.0" y="60" type="curve" smooth="yes"/>
      <point x="761.0" y="84.0"/>
      <point x="774" y="158.0"/>
      <point x="789" y="158.0" type="curve" smooth="yes"/>
      <point x="835" y="158.0"/>
      <point x="894" y="148"/>
      <point x="916" y="135" type="curve" smooth="yes"/>
      <point x="923" y="131"/>
      <point x="927.0" y="124.0"/>
      <point x="927" y="108" type="curve" smooth="yes"/>
      <point x="927.0" y="88.0"/>
      <point x="920" y="66"/>
      <point x="907" y="51" type="curve" smooth="yes"/>
      <point x="899" y="41"/>
      <point x="895.0" y="37.0"/>
      <point x="866" y="37" type="curve" smooth="yes"/>
      <point x="837.0" y="37.0"/>
      <point x="806.2043010752689" y="39.0"/>
      <point x="783" y="43" type="curve" smooth="yes"/>
      <point x="770" y="45"/>
      <point x="761" y="49"/>
    </contour>
    <contour>
      <point x="787" y="175" type="line"/>
      <point x="803" y="233"/>
      <point x="816.0" y="291.84615384615387"/>
      <point x="816" y="326" type="curve" smooth="yes"/>
      <point x="816.0" y="407.0"/>
      <point x="765.5263157894736" y="433.0"/>
      <point x="679" y="433" type="curve" smooth="yes"/>
      <point x="583" y="433"/>
      <point x="441" y="420"/>
      <point x="302" y="400" type="curve"/>
      <point x="294" y="406"/>
      <point x="286" y="410"/>
      <point x="274" y="410" type="curve" smooth="yes"/>
      <point x="222" y="410"/>
      <point x="76" y="167"/>
      <point x="76" y="37" type="curve" smooth="yes"/>
      <point x="76" y="10"/>
      <point x="91" y="-5"/>
      <point x="120" y="-5" type="curve" smooth="yes"/>
      <point x="139" y="-5"/>
      <point x="161" y="-2"/>
      <point x="175" y="3" type="curve"/>
      <point x="174" y="13"/>
      <point x="173" y="22"/>
      <point x="173" y="37" type="curve" smooth="yes"/>
      <point x="173" y="189"/>
      <point x="263" y="320"/>
      <point x="307" y="342" type="curve" smooth="yes"/>
      <point x="360" y="367"/>
      <point x="491" y="375"/>
      <point x="649" y="375" type="curve" smooth="yes"/>
      <point x="707" y="375"/>
      <point x="729" y="352"/>
      <point x="729" y="297" type="curve" smooth="yes"/>
      <point x="729.0" y="218.87719298245614"/>
      <point x="668.0" y="107"/>
      <point x="668.0" y="53" type="curve" smooth="yes"/>
      <point x="668.0" y="24"/>
      <point x="683" y="10"/>
      <point x="728" y="0" type="curve" smooth="yes"/>
      <point x="758.1714285714286" y="-7.0"/>
      <point x="852" y="-18.0"/>
      <point x="893" y="-18.0" type="curve" smooth="yes"/>
      <point x="931.0" y="-18.0"/>
      <point x="961" y="-12"/>
      <point x="978" y="10" type="curve" smooth="yes"/>
      <point x="1001" y="41"/>
      <point x="1013.0" y="86.0"/>
      <point x="1013" y="115" type="curve" smooth="yes"/>
      <point x="1013.0" y="145.1153846153846"/>
      <point x="1003.0" y="162.96153846153845"/>
      <point x="981" y="173" type="curve" smooth="yes"/>
      <point x="931.0" y="195.0"/>
      <point x="823.0" y="211.0"/>
      <point x="754" y="215" type="curve"/>
    </contour>
  </outline>
</glyph>
<glyph name="uni1216" format="2">
  <advance width="890"/>
  <unicode hex="1216"/>
  <outline>
    <contour>
      <point x="222" y="410"/>
      <point x="76" y="167"/>
      <point x="76" y="37" type="curve" smooth="yes"/>
      <point x="76" y="10"/>
      <point x="91" y="-5"/>
      <point x="120" y="-5" type="curve" smooth="yes"/>
      <point x="139" y="-5"/>
      <point x="161" y="-2"/>
      <point x="175" y="3" type="curve"/>
      <point x="174" y="13"/>
      <point x="173" y="22"/>
      <point x="173" y="37" type="curve" smooth="yes"/>
      <point x="173" y="189"/>
      <point x="263" y="320"/>
      <point x="307" y="342" type="curve" smooth="yes"/>
      <point x="360" y="367"/>
      <point x="491" y="375"/>
      <point x="649" y="375" type="curve" smooth="yes"/>
      <point x="707" y="375"/>
      <point x="729" y="352"/>
      <point x="729" y="319" type="curve" smooth="yes"/>
      <point x="729" y="290"/>
      <point x="710" y="230"/>
      <point x="710" y="218" type="curve" smooth="yes"/>
      <point x="710" y="196"/>
      <point x="722" y="183"/>
      <point x="747" y="183" type="curve" smooth="yes"/>
      <point x="767" y="183"/>
      <point x="798" y="191"/>
      <point x="809" y="203" type="curve"/>
      <point x="796" y="236"/>
      <point x="812" y="305"/>
      <point x="812" y="352" type="curve" smooth="yes"/>
      <point x="812" y="407"/>
      <point x="763" y="433"/>
      <point x="679" y="433" type="curve" smooth="yes"/>
      <point x="583" y="433"/>
      <point x="441" y="420"/>
      <point x="302" y="400" type="curve"/>
      <point x="294" y="406"/>
      <point x="286" y="410"/>
      <point x="274" y="410" type="curve" smooth="yes"/>
    </contour>
    <contour>
      <point x="500" y="129" type="curve"/>
      <point x="477" y="181"/>
      <point x="597" y="484"/>
      <point x="617" y="536" type="curve"/>
      <point x="636" y="537"/>
      <point x="650" y="547"/>
      <point x="650" y="562" type="curve" smooth="yes"/>
      <point x="650" y="591"/>
      <point x="605" y="637"/>
      <point x="540" y="637" type="curve" smooth="yes"/>
      <point x="494" y="637"/>
      <point x="487" y="605"/>
      <point x="493" y="585" type="curve"/>
      <point x="519" y="577"/>
      <point x="529" y="568"/>
      <point x="529" y="549" type="curve" smooth="yes"/>
      <point x="529" y="473"/>
      <point x="400" y="204"/>
      <point x="400" y="127" type="curve" smooth="yes"/>
      <point x="400" y="102"/>
      <point x="416" y="90"/>
      <point x="437" y="90" type="curve" smooth="yes"/>
      <point x="460" y="90"/>
      <point x="483" y="104"/>
    </contour>
  </outline>
</glyph>
<glyph name="uni1229" format="2">
  <advance width="676"/>
  <unicode hex="1229"/>
  <outline>
    <contour>
      <point x="217" y="125" type="line"/>
      <point x="192" y="71"/>
      <point x="171" y="13"/>
      <point x="171" y="-13" type="curve" smooth="yes"/>
      <point x="171" y="-33"/>
      <point x="180" y="-45"/>
      <point x="202" y="-45" type="curve" smooth="yes"/>
      <point x="232" y="-45"/>
      <point x="260" y="-39"/>
      <point x="274" y="-25" type="curve"/>
      <point x="264" y="0"/>
      <point x="278" y="57"/>
      <point x="313" y="129" type="curve"/>
    </contour>
    <contour>
      <point x="93" y="259" type="curve" smooth="yes"/>
      <point x="93" y="169"/>
      <point x="144" y="85"/>
      <point x="285" y="85" type="curve" smooth="yes"/>
      <point x="346" y="85"/>
      <point x="422" y="99"/>
      <point x="489" y="107" type="curve"/>
      <point x="465" y="120" type="line"/>
      <point x="448" y="58"/>
      <point x="485" y="27"/>
      <point x="573" y="45" type="curve"/>
      <point x="567" y="65"/>
      <point x="567" y="106"/>
      <point x="569" y="133" type="curve"/>
      <point x="539" y="142"/>
      <point x="502" y="149"/>
      <point x="477" y="149" type="curve"/>
      <point x="437" y="143"/>
      <point x="379" y="133"/>
      <point x="324" y="133" type="curve" smooth="yes"/>
      <point x="244" y="133"/>
      <point x="194" y="195"/>
      <point x="194" y="275" type="curve" smooth="yes"/>
      <point x="194" y="410"/>
      <point x="322" y="598"/>
      <point x="444" y="598" type="curve" smooth="yes"/>
      <point x="474" y="598"/>
      <point x="510" y="589"/>
      <point x="542" y="578" type="curve"/>
      <point x="499" y="628" type="line"/>
      <point x="480" y="559"/>
      <point x="520" y="525"/>
      <point x="609" y="544" type="curve"/>
      <point x="603" y="567"/>
      <point x="600" y="611"/>
      <point x="603" y="641" type="curve"/>
      <point x="573" y="654"/>
      <point x="536" y="654"/>
      <point x="511" y="644" type="curve"/>
      <point x="493" y="647"/>
      <point x="467" y="650"/>
      <point x="436" y="650" type="curve" smooth="yes"/>
      <point x="315" y="650"/>
      <point x="93" y="475"/>
    </contour>
  </outline>
</glyph>
<glyph name="uni122C" format="2">
  <advance width="847"/>
  <unicode hex="122C"/>
  <outline>
    <contour>
      <point x="638" y="77" type="curve" smooth="yes"/>
      <point x="679" y="77"/>
      <point x="704" y="42"/>
      <point x="704" y="9" type="curve" smooth="yes"/>
      <point x="704" y="-14"/>
      <point x="684" y="-37"/>
      <point x="648" y="-37" type="curve" smooth="yes"/>
      <point x="595" y="-37"/>
      <point x="517" y="13"/>
      <point x="517" y="36" type="curve" smooth="yes"/>
      <point x="517" y="52"/>
      <point x="585" y="77"/>
    </contour>
    <contour>
      <point x="287" y="-5" type="curve" smooth="yes"/>
      <point x="357" y="-5"/>
      <point x="409" y="6"/>
      <point x="474" y="27" type="curve"/>
      <point x="427" y="32" type="line"/>
      <point x="494" y="-58"/>
      <point x="589" y="-101"/>
      <point x="636" y="-101" type="curve" smooth="yes"/>
      <point x="720" y="-101"/>
      <point x="790" y="-43"/>
      <point x="790" y="13" type="curve" smooth="yes"/>
      <point x="790" y="68"/>
      <point x="733" y="151"/>
      <point x="665" y="151" type="curve" smooth="yes"/>
      <point x="555" y="151"/>
      <point x="412" y="71"/>
      <point x="312" y="71" type="curve" smooth="yes"/>
      <point x="246" y="71"/>
      <point x="193" y="121"/>
      <point x="193" y="208" type="curve" smooth="yes"/>
      <point x="193" y="336"/>
      <point x="349" y="578"/>
      <point x="488" y="578" type="curve" smooth="yes"/>
      <point x="518" y="578"/>
      <point x="554" y="569"/>
      <point x="586" y="558" type="curve"/>
      <point x="543" y="608" type="line"/>
      <point x="524" y="539"/>
      <point x="564" y="505"/>
      <point x="653" y="524" type="curve"/>
      <point x="647" y="547"/>
      <point x="644" y="591"/>
      <point x="647" y="621" type="curve"/>
      <point x="617" y="634"/>
      <point x="580" y="634"/>
      <point x="555" y="624" type="curve"/>
      <point x="537" y="627"/>
      <point x="511" y="630"/>
      <point x="480" y="630" type="curve" smooth="yes"/>
      <point x="343" y="630"/>
      <point x="92" y="424"/>
      <point x="92" y="173" type="curve" smooth="yes"/>
      <point x="92" y="86"/>
      <point x="158" y="-5"/>
    </contour>
  </outline>
</glyph>
<glyph name="uni124B" format="2">
  <advance width="825"/>
  <unicode hex="124B"/>
  <outline>
    <contour>
      <point x="276" y="157" type="curve"/>
      <point x="320" y="161"/>
      <point x="460" y="175"/>
      <point x="532" y="180" type="curve"/>
      <point x="527" y="201" type="line"/>
      <point x="496" y="143"/>
      <point x="450" y="59"/>
      <point x="450" y="19" type="curve" smooth="yes"/>
      <point x="450" y="-13"/>
      <point x="471" y="-29"/>
      <point x="502" y="-29" type="curve" smooth="yes"/>
      <point x="515" y="-29"/>
      <point x="533" y="-27"/>
      <point x="545" y="-23" type="curve"/>
      <point x="548" y="24"/>
      <point x="601" y="169"/>
      <point x="620" y="204" type="curve"/>
      <point x="599" y="218"/>
      <point x="561" y="228"/>
      <point x="552" y="228" type="curve" smooth="yes"/>
      <point x="524" y="228"/>
      <point x="329" y="207"/>
      <point x="259" y="201" type="curve"/>
      <point x="190" y="214"/>
      <point x="152" y="184"/>
      <point x="152" y="122" type="curve" smooth="yes"/>
      <point x="152" y="84"/>
      <point x="174" y="69"/>
      <point x="206" y="69" type="curve" smooth="yes"/>
      <point x="233" y="69"/>
      <point x="255" y="76"/>
      <point x="269" y="83" type="curve"/>
      <point x="264" y="105"/>
      <point x="266" y="139"/>
    </contour>
    <contour>
      <point x="638" y="494"/>
      <point x="665" y="475"/>
      <point x="665" y="432" type="curve" smooth="yes"/>
      <point x="665" y="367"/>
      <point x="580" y="327"/>
      <point x="476" y="327" type="curve" smooth="yes"/>
      <point x="462" y="327"/>
      <point x="452" y="328"/>
      <point x="457" y="358" type="curve" smooth="yes"/>
      <point x="465" y="403"/>
      <point x="479" y="467"/>
      <point x="494" y="526" type="curve"/>
      <point x="457" y="494" type="line"/>
    </contour>
    <contour>
      <point x="167" y="371" type="curve" smooth="yes"/>
      <point x="167" y="462"/>
      <point x="290" y="485"/>
      <point x="436" y="490" type="curve"/>
      <point x="410" y="522" type="line"/>
      <point x="402" y="470"/>
      <point x="383" y="385"/>
      <point x="376" y="355" type="curve" smooth="yes"/>
      <point x="369" y="323"/>
      <point x="357" y="313"/>
      <point x="337" y="313" type="curve" smooth="yes"/>
      <point x="227" y="313"/>
      <point x="167" y="319"/>
    </contour>
    <contour>
      <point x="513" y="606" type="curve"/>
      <point x="523" y="613"/>
      <point x="530" y="621"/>
      <point x="530" y="635" type="curve" smooth="yes"/>
      <point x="530" y="661"/>
      <point x="473" y="677"/>
      <point x="423" y="677" type="curve" smooth="yes"/>
      <point x="385" y="677"/>
      <point x="375" y="654"/>
      <point x="381" y="631" type="curve"/>
      <point x="405" y="627"/>
      <point x="420" y="618"/>
      <point x="420" y="599" type="curve"/>
      <point x="420" y="580"/>
      <point x="417" y="566"/>
      <point x="414" y="539" type="curve"/>
      <point x="294" y="532"/>
      <point x="187" y="503"/>
      <point x="134" y="467" type="curve" smooth="yes"/>
      <point x="105" y="447"/>
      <point x="72" y="409"/>
      <point x="72" y="361" type="curve" smooth="yes"/>
      <point x="72" y="267"/>
      <point x="175" y="255"/>
      <point x="350" y="260" type="curve"/>
      <point x="347" y="240"/>
      <point x="339" y="212"/>
      <point x="335" y="195" type="curve"/>
      <point x="422" y="196" type="line"/>
      <point x="423" y="214"/>
      <point x="430" y="245"/>
      <point x="434" y="266" type="curve"/>
      <point x="569" y="282"/>
      <point x="622" y="310"/>
      <point x="664" y="333" type="curve" smooth="yes"/>
      <point x="719" y="363"/>
      <point x="761" y="399"/>
      <point x="761" y="445" type="curve" smooth="yes"/>
      <point x="761" y="504"/>
      <point x="713" y="545"/>
      <point x="556" y="545" type="curve" smooth="yes"/>
      <point x="523" y="545"/>
      <point x="508" y="544"/>
      <point x="496" y="544" type="curve"/>
      <point x="502" y="574"/>
      <point x="508" y="594"/>
    </contour>
  </outline>
</glyph>
<glyph name="uni1283" format="2">
  <advance width="609"/>
  <unicode hex="1283"/>
  <outline>
    <contour>
      <point x="209" y="-6" type="curve"/>
      <point x="236" y="-2"/>
      <point x="316" y="2"/>
      <point x="387" y="8" type="curve"/>
      <point x="406" y="56" type="line"/>
      <point x="331" y="43"/>
      <point x="235" y="39"/>
      <point x="196" y="40" type="curve"/>
      <point x="131" y="48"/>
      <point x="95" y="11"/>
      <point x="95" y="-38" type="curve" smooth="yes"/>
      <point x="95" y="-68"/>
      <point x="116" y="-89"/>
      <point x="154" y="-89" type="curve" smooth="yes"/>
      <point x="165" y="-89"/>
      <point x="178" y="-87"/>
      <point x="192" y="-83" type="curve"/>
      <point x="188" y="-55"/>
      <point x="195" y="-20"/>
    </contour>
    <contour>
      <point x="401" y="639" type="curve" smooth="yes"/>
      <point x="379" y="639"/>
      <point x="360" y="633"/>
      <point x="346" y="625" type="curve"/>
      <point x="365" y="569"/>
      <point x="267" y="379"/>
      <point x="267" y="330" type="curve" smooth="yes"/>
      <point x="267" y="310"/>
      <point x="280" y="291"/>
      <point x="311" y="291" type="curve" smooth="yes"/>
      <point x="363" y="291"/>
      <point x="397" y="294"/>
      <point x="417" y="294" type="curve" smooth="yes"/>
      <point x="437" y="294"/>
      <point x="446" y="286"/>
      <point x="445" y="271" type="curve" smooth="yes"/>
      <point x="444" y="241"/>
      <point x="323" y="71"/>
      <point x="323" y="26" type="curve" smooth="yes"/>
      <point x="323" y="3"/>
      <point x="343" y="-5"/>
      <point x="368" y="-5" type="curve" smooth="yes"/>
      <point x="388" y="-5"/>
      <point x="414" y="2"/>
      <point x="426" y="14" type="curve"/>
      <point x="406" y="69"/>
      <point x="540" y="259"/>
      <point x="540" y="302" type="curve" smooth="yes"/>
      <point x="540" y="327"/>
      <point x="528" y="340"/>
      <point x="503" y="340" type="curve" smooth="yes"/>
      <point x="470" y="340"/>
      <point x="425" y="334"/>
      <point x="397" y="334" type="curve" smooth="yes"/>
      <point x="368" y="334"/>
      <point x="364" y="344"/>
      <point x="364" y="358" type="curve" smooth="yes"/>
      <point x="364" y="405"/>
      <point x="444" y="575"/>
      <point x="444" y="610" type="curve" smooth="yes"/>
      <point x="444" y="626"/>
      <point x="428" y="639"/>
    </contour>
    <contour>
      <point x="355" y="503" type="line"/>
      <point x="300" y="500"/>
      <point x="215" y="498"/>
      <point x="169" y="498" type="curve"/>
      <point x="95" y="515"/>
      <point x="67" y="467"/>
      <point x="67" y="404" type="curve" smooth="yes"/>
      <point x="67" y="372"/>
      <point x="81" y="357"/>
      <point x="107" y="357" type="curve" smooth="yes"/>
      <point x="127" y="357"/>
      <point x="145" y="360"/>
      <point x="167" y="373" type="curve"/>
      <point x="155" y="405"/>
      <point x="157" y="443"/>
      <point x="184" y="485" type="curve"/>
      <point x="141" y="449" type="line"/>
      <point x="180" y="459"/>
      <point x="259" y="460"/>
      <point x="340" y="461" type="curve"/>
    </contour>
  </outline>
</glyph>
<glyph name="uni1288" format="2">
  <advance width="1000"/>
  <unicode hex="1288"/>
  <outline>
    <contour>
      <point x="396" y="639" type="curve" smooth="yes"/>
      <point x="374" y="639"/>
      <point x="355" y="633"/>
      <point x="341" y="625" type="curve"/>
      <point x="360" y="569"/>
      <point x="262" y="379"/>
      <point x="262" y="330" type="curve" smooth="yes"/>
      <point x="262" y="310"/>
      <point x="275" y="291"/>
      <point x="306" y="291" type="curve" smooth="yes"/>
      <point x="358" y="291"/>
      <point x="392" y="294"/>
      <point x="412" y="294" type="curve" smooth="yes"/>
      <point x="432" y="294"/>
      <point x="441" y="286"/>
      <point x="440" y="271" type="curve" smooth="yes"/>
      <point x="439" y="241"/>
      <point x="318" y="71"/>
      <point x="318" y="26" type="curve" smooth="yes"/>
      <point x="318" y="3"/>
      <point x="338" y="-5"/>
      <point x="363" y="-5" type="curve" smooth="yes"/>
      <point x="383" y="-5"/>
      <point x="409" y="2"/>
      <point x="421" y="14" type="curve"/>
      <point x="401" y="69"/>
      <point x="535" y="259"/>
      <point x="535" y="302" type="curve" smooth="yes"/>
      <point x="535" y="327"/>
      <point x="523" y="340"/>
      <point x="498" y="340" type="curve" smooth="yes"/>
      <point x="465" y="340"/>
      <point x="420" y="334"/>
      <point x="392" y="334" type="curve" smooth="yes"/>
      <point x="363" y="334"/>
      <point x="359" y="344"/>
      <point x="359" y="358" type="curve" smooth="yes"/>
      <point x="359" y="405"/>
      <point x="439" y="575"/>
      <point x="439" y="610" type="curve" smooth="yes"/>
      <point x="439" y="626"/>
      <point x="423" y="639"/>
    </contour>
    <contour>
      <point x="350" y="503" type="line"/>
      <point x="295" y="500"/>
      <point x="210" y="498"/>
      <point x="164" y="498" type="curve"/>
      <point x="90" y="515"/>
      <point x="62" y="467"/>
      <point x="62" y="404" type="curve" smooth="yes"/>
      <point x="62" y="372"/>
      <point x="76" y="357"/>
      <point x="102" y="357" type="curve" smooth="yes"/>
      <point x="122" y="357"/>
      <point x="140" y="360"/>
      <point x="162" y="373" type="curve"/>
      <point x="150" y="405"/>
      <point x="152" y="443"/>
      <point x="179" y="485" type="curve"/>
      <point x="136" y="449" type="line"/>
      <point x="175" y="459"/>
      <point x="254" y="460"/>
      <point x="335" y="461" type="curve"/>
    </contour>
    <contour>
      <point x="907.0" y="279.0" type="curve" smooth="yes"/>
      <point x="907.0" y="332.02127659574467"/>
      <point x="868.0" y="368.0"/>
      <point x="789" y="368" type="curve" smooth="yes"/>
      <point x="712" y="368.0"/>
      <point x="572" y="332"/>
      <point x="465" y="306" type="curve"/>
      <point x="486" y="255" type="line"/>
      <point x="515" y="262"/>
      <point x="542" y="271"/>
      <point x="609" y="285" type="curve"/>
      <point x="586" y="289" type="line"/>
      <point x="606.0" y="201"/>
      <point x="719" y="155"/>
      <point x="786.0" y="155.0" type="curve" smooth="yes"/>
      <point x="849.0" y="155.0"/>
      <point x="907.0" y="211.2689075630252"/>
    </contour>
    <contour>
      <point x="768" y="310" type="curve" smooth="yes"/>
      <point x="808.0" y="310.0"/>
      <point x="821.0" y="301.219512195122"/>
      <point x="821.0" y="274.0" type="curve" smooth="yes"/>
      <point x="821.0" y="246.64150943396226"/>
      <point x="802.0" y="216.0"/>
      <point x="775.0" y="216.0" type="curve" smooth="yes"/>
      <point x="734" y="216"/>
      <point x="671.0" y="246.0"/>
      <point x="671" y="278" type="curve" smooth="yes"/>
      <point x="671.0" y="297"/>
      <point x="719" y="310"/>
    </contour>
  </outline>
</glyph>
<glyph name="uni12A4" format="2">
  <advance width="842"/>
  <unicode hex="12A4"/>
  <outline>
    <contour>
      <point x="173" y="626" type="curve"/>
      <point x="175" y="618"/>
      <point x="176" y="607"/>
      <point x="176" y="594" type="curve" smooth="yes"/>
      <point x="176" y="561"/>
      <point x="154" y="509"/>
      <point x="154" y="479" type="curve" smooth="yes"/>
      <point x="154" y="458"/>
      <point x="166" y="445"/>
      <point x="192" y="445" type="curve" smooth="yes"/>
      <point x="257" y="445"/>
      <point x="293" y="455"/>
      <point x="372" y="455" type="curve" smooth="yes"/>
      <point x="380" y="455"/>
      <point x="385" y="452"/>
      <point x="385" y="445" type="curve" smooth="yes"/>
      <point x="385" y="432"/>
      <point x="371" y="416"/>
      <point x="349" y="392" type="curve" smooth="yes"/>
      <point x="265" y="300"/>
      <point x="65" y="108"/>
      <point x="65" y="31" type="curve" smooth="yes"/>
      <point x="65" y="4"/>
      <point x="79" y="-5"/>
      <point x="102" y="-5" type="curve" smooth="yes"/>
      <point x="131" y="-5"/>
      <point x="165" y="4"/>
      <point x="179" y="19" type="curve"/>
      <point x="164" y="128"/>
      <point x="366" y="302"/>
      <point x="467" y="411" type="curve" smooth="yes"/>
      <point x="490" y="436"/>
      <point x="502" y="461"/>
      <point x="502" y="480" type="curve" smooth="yes"/>
      <point x="502" y="499"/>
      <point x="483" y="510"/>
      <point x="453" y="510" type="curve" smooth="yes"/>
      <point x="391" y="510"/>
      <point x="316" y="501"/>
      <point x="261" y="501" type="curve" smooth="yes"/>
      <point x="247" y="501"/>
      <point x="244" y="507"/>
      <point x="244" y="515" type="curve" smooth="yes"/>
      <point x="244" y="541"/>
      <point x="266" y="586"/>
      <point x="266" y="610" type="curve" smooth="yes"/>
      <point x="266" y="628"/>
      <point x="249" y="639"/>
      <point x="222" y="639" type="curve" smooth="yes"/>
      <point x="205" y="639"/>
      <point x="189" y="635"/>
    </contour>
    <contour>
      <point x="557" y="196" type="line"/>
      <point x="564" y="218"/>
      <point x="570.0" y="262.1111111111111"/>
      <point x="570" y="281" type="curve" smooth="yes"/>
      <point x="570" y="358"/>
      <point x="519" y="371"/>
      <point x="460" y="371" type="curve" smooth="yes"/>
      <point x="390" y="371"/>
      <point x="317" y="327"/>
      <point x="265" y="273" type="curve"/>
      <point x="279" y="244" type="line"/>
      <point x="346" y="302"/>
      <point x="397" y="322"/>
      <point x="431" y="322" type="curve" smooth="yes"/>
      <point x="465" y="322"/>
      <point x="484" y="303"/>
      <point x="484" y="266" type="curve" smooth="yes"/>
      <point x="484.0" y="199.46428571428572"/>
      <point x="446.0" y="107.0"/>
      <point x="446.0" y="58" type="curve" smooth="yes"/>
      <point x="446" y="29"/>
      <point x="461.0" y="10"/>
      <point x="503" y="1" type="curve" smooth="yes"/>
      <point x="535" y="-6"/>
      <point x="625" y="-18.0"/>
      <point x="678" y="-18.0" type="curve" smooth="yes"/>
      <point x="718" y="-18.0"/>
      <point x="741" y="-9"/>
      <point x="760" y="13" type="curve" smooth="yes"/>
      <point x="783" y="41"/>
      <point x="791.0" y="86"/>
      <point x="791" y="115" type="curve" smooth="yes"/>
      <point x="791.0" y="145.1153846153846"/>
      <point x="781.0" y="162.96153846153845"/>
      <point x="759" y="173" type="curve" smooth="yes"/>
      <point x="708" y="195.0"/>
      <point x="598" y="211.0"/>
      <point x="527" y="215" type="curve"/>
    </contour>
    <contour>
      <point x="539.0" y="71" type="curve" smooth="yes"/>
      <point x="539.0" y="107.0"/>
      <point x="549" y="158.0"/>
      <point x="563" y="158.0" type="curve" smooth="yes"/>
      <point x="612" y="158"/>
      <point x="671.3458646616541" y="147.0"/>
      <point x="694" y="135" type="curve" smooth="yes"/>
      <point x="701" y="131"/>
      <point x="705" y="124"/>
      <point x="705" y="108" type="curve" smooth="yes"/>
      <point x="705.0" y="84.0"/>
      <point x="698" y="66"/>
      <point x="687" y="51" type="curve" smooth="yes"/>
      <point x="679" y="41"/>
      <point x="667" y="37.0"/>
      <point x="648" y="37" type="curve" smooth="yes"/>
      <point x="621.0" y="37"/>
      <point x="590" y="38.0"/>
      <point x="564" y="43" type="curve" smooth="yes"/>
      <point x="549" y="46.0"/>
      <point x="539" y="53"/>
    </contour>
  </outline>
</glyph>
<glyph name="uni12AC" format="2">
  <advance width="843"/>
  <unicode hex="12AC"/>
  <outline>
    <contour>
      <point x="222" y="631" type="curve" smooth="yes"/>
      <point x="222" y="658"/>
      <point x="203" y="670"/>
      <point x="175" y="670" type="curve" smooth="yes"/>
      <point x="141" y="670"/>
      <point x="113" y="655"/>
      <point x="106" y="631" type="curve"/>
      <point x="119" y="625"/>
      <point x="124" y="614"/>
      <point x="124" y="593" type="curve" smooth="yes"/>
      <point x="124" y="566"/>
      <point x="96" y="507"/>
      <point x="96" y="472" type="curve" smooth="yes"/>
      <point x="96" y="452"/>
      <point x="110" y="438"/>
      <point x="140" y="438" type="curve" smooth="yes"/>
      <point x="165" y="438"/>
      <point x="191" y="440"/>
      <point x="219" y="440" type="curve" smooth="yes"/>
      <point x="246" y="440"/>
      <point x="255" y="436"/>
      <point x="255" y="418" type="curve" smooth="yes"/>
      <point x="255" y="382"/>
      <point x="127" y="121"/>
      <point x="127" y="39" type="curve"/>
      <point x="224" y="27" type="line"/>
      <point x="224" y="177"/>
      <point x="351" y="380"/>
      <point x="351" y="459" type="curve" smooth="yes"/>
      <point x="351" y="483"/>
      <point x="328" y="487"/>
      <point x="296" y="487" type="curve" smooth="yes"/>
      <point x="261" y="487"/>
      <point x="241" y="487"/>
      <point x="214" y="487" type="curve" smooth="yes"/>
      <point x="191" y="487"/>
      <point x="188" y="491"/>
      <point x="188" y="506" type="curve" smooth="yes"/>
      <point x="188" y="549"/>
      <point x="222" y="594"/>
    </contour>
    <contour>
      <point x="113" y="0" type="curve"/>
      <point x="168" y="3"/>
      <point x="219" y="3"/>
      <point x="248" y="-4" type="curve"/>
      <point x="264" y="26"/>
      <point x="258" y="66"/>
      <point x="212" y="66" type="curve" smooth="yes"/>
      <point x="188" y="66"/>
      <point x="147" y="63"/>
      <point x="129" y="58" type="curve" smooth="yes"/>
      <point x="102" y="51"/>
      <point x="90" y="27"/>
    </contour>
    <contour>
      <point x="537.0" y="71" type="curve" smooth="yes"/>
      <point x="537.0" y="107.0"/>
      <point x="550" y="158.0"/>
      <point x="559" y="158.0" type="curve" smooth="yes"/>
      <point x="609" y="158.0"/>
      <point x="669" y="147.0"/>
      <point x="692" y="135" type="curve" smooth="yes"/>
      <point x="699" y="131"/>
      <point x="703" y="124"/>
      <point x="703" y="108" type="curve" smooth="yes"/>
      <point x="703.0" y="84.0"/>
      <point x="696" y="66"/>
      <point x="685" y="51" type="curve" smooth="yes"/>
      <point x="677" y="41"/>
      <point x="665" y="37.0"/>
      <point x="646" y="37" type="curve" smooth="yes"/>
      <point x="619.0" y="37"/>
      <point x="588" y="38.0"/>
      <point x="562" y="43" type="curve" smooth="yes"/>
      <point x="547" y="46.0"/>
      <point x="537" y="53"/>
    </contour>
    <contour>
      <point x="557" y="175" type="line"/>
      <point x="578" y="239"/>
      <point x="617.0" y="377.61650485436894"/>
      <point x="617" y="424" type="curve" smooth="yes"/>
      <point x="617" y="471"/>
      <point x="589" y="507"/>
      <point x="502" y="507" type="curve" smooth="yes"/>
      <point x="443" y="507"/>
      <point x="399" y="501"/>
      <point x="305" y="483" type="curve"/>
      <point x="306" y="428" type="line"/>
      <point x="387" y="449"/>
      <point x="427" y="449"/>
      <point x="463" y="449" type="curve" smooth="yes"/>
      <point x="509" y="449"/>
      <point x="522" y="430"/>
      <point x="522" y="386" type="curve" smooth="yes"/>
      <point x="522.0" y="298.4555160142349"/>
      <point x="444.0" y="125"/>
      <point x="444.0" y="58" type="curve" smooth="yes"/>
      <point x="444.0" y="29.0"/>
      <point x="459.0" y="10"/>
      <point x="501" y="1" type="curve" smooth="yes"/>
      <point x="533" y="-6"/>
      <point x="623" y="-18.0"/>
      <point x="676" y="-18.0" type="curve" smooth="yes"/>
      <point x="716" y="-18.0"/>
      <point x="739" y="-9"/>
      <point x="758" y="13" type="curve" smooth="yes"/>
      <point x="781" y="41"/>
      <point x="789.0" y="86"/>
      <point x="789" y="115" type="curve" smooth="yes"/>
      <point x="789.0" y="145.1153846153846"/>
      <point x="779.0" y="162.96153846153845"/>
      <point x="757" y="173" type="curve" smooth="yes"/>
      <point x="704" y="195.0"/>
      <point x="589" y="211.0"/>
      <point x="515" y="215" type="curve"/>
    </contour>
  </outline>
</glyph>
<glyph name="uni12C8" format="2">
  <advance width="906"/>
  <unicode hex="12C8"/>
  <outline>
    <contour>
      <point x="95" y="260" type="curve" smooth="yes"/>
      <point x="95" y="131"/>
      <point x="176" y="60"/>
      <point x="301" y="60" type="curve" smooth="yes"/>
      <point x="415" y="60"/>
      <point x="444" y="69"/>
      <point x="490" y="125" type="curve"/>
      <point x="442" y="97" type="line"/>
      <point x="555" y="108"/>
      <point x="659" y="138"/>
      <point x="724" y="203" type="curve" smooth="yes"/>
      <point x="782" y="261"/>
      <point x="816" y="373"/>
      <point x="816" y="457" type="curve" smooth="yes"/>
      <point x="816" y="551"/>
      <point x="752" y="626"/>
      <point x="556" y="626" type="curve" smooth="yes"/>
      <point x="388" y="626"/>
      <point x="267" y="592"/>
      <point x="198" y="525" type="curve" smooth="yes"/>
      <point x="144" y="472"/>
      <point x="95" y="386"/>
    </contour>
    <contour>
      <point x="458" y="199" type="curve" smooth="yes"/>
      <point x="458" y="257"/>
      <point x="508" y="454"/>
      <point x="535" y="537" type="curve" smooth="yes"/>
      <point x="544" y="565"/>
      <point x="559" y="568"/>
      <point x="586" y="568" type="curve" smooth="yes"/>
      <point x="679" y="568"/>
      <point x="729" y="514"/>
      <point x="729" y="448" type="curve" smooth="yes"/>
      <point x="729" y="275"/>
      <point x="603" y="163"/>
      <point x="489" y="163" type="curve" smooth="yes"/>
      <point x="464" y="163"/>
      <point x="458" y="171"/>
    </contour>
    <contour>
      <point x="183" y="276" type="curve" smooth="yes"/>
      <point x="183" y="334"/>
      <point x="198" y="417"/>
      <point x="244" y="476" type="curve" smooth="yes"/>
      <point x="283" y="526"/>
      <point x="350" y="555"/>
      <point x="426" y="555" type="curve" smooth="yes"/>
      <point x="441" y="555"/>
      <point x="450" y="547"/>
      <point x="450" y="531" type="curve" smooth="yes"/>
      <point x="450" y="495"/>
      <point x="367" y="257"/>
      <point x="367" y="168" type="curve" smooth="yes"/>
      <point x="367" y="155"/>
      <point x="368" y="143"/>
      <point x="369" y="133" type="curve"/>
      <point x="360" y="132"/>
      <point x="350" y="131"/>
      <point x="340" y="131" type="curve" smooth="yes"/>
      <point x="227" y="131"/>
      <point x="183" y="185"/>
    </contour>
  </outline>
</glyph>
<glyph name="uni12CD" format="2">
  <advance width="1113"/>
  <unicode hex="12CD"/>
  <outline>
    <contour>
      <point x="95" y="260" type="curve" smooth="yes"/>
      <point x="95" y="131"/>
      <point x="176" y="60"/>
      <point x="301" y="60" type="curve" smooth="yes"/>
      <point x="415" y="60"/>
      <point x="444" y="69"/>
      <point x="490" y="125" type="curve"/>
      <point x="442" y="97" type="line"/>
      <point x="555" y="108"/>
      <point x="659" y="138"/>
      <point x="724" y="203" type="curve" smooth="yes"/>
      <point x="782" y="261"/>
      <point x="816" y="373"/>
      <point x="816" y="457" type="curve" smooth="yes"/>
      <point x="816" y="551"/>
      <point x="752" y="626"/>
      <point x="556" y="626" type="curve" smooth="yes"/>
      <point x="388" y="626"/>
      <point x="267" y="592"/>
      <point x="198" y="525" type="curve" smooth="yes"/>
      <point x="144" y="472"/>
      <point x="95" y="386"/>
    </contour>
    <contour>
      <point x="458" y="199" type="curve" smooth="yes"/>
      <point x="458" y="257"/>
      <point x="508" y="454"/>
      <point x="535" y="537" type="curve" smooth="yes"/>
      <point x="544" y="565"/>
      <point x="559" y="568"/>
      <point x="586" y="568" type="curve" smooth="yes"/>
      <point x="679" y="568"/>
      <point x="729" y="514"/>
      <point x="729" y="448" type="curve" smooth="yes"/>
      <point x="729" y="275"/>
      <point x="603" y="163"/>
      <point x="489" y="163" type="curve" smooth="yes"/>
      <point x="464" y="163"/>
      <point x="458" y="171"/>
    </contour>
    <contour>
      <point x="183" y="276" type="curve" smooth="yes"/>
      <point x="183" y="334"/>
      <point x="198" y="417"/>
      <point x="244" y="476" type="curve" smooth="yes"/>
      <point x="283" y="526"/>
      <point x="350" y="555"/>
      <point x="426" y="555" type="curve" smooth="yes"/>
      <point x="441" y="555"/>
      <point x="450" y="547"/>
      <point x="450" y="531" type="curve" smooth="yes"/>
      <point x="450" y="495"/>
      <point x="367" y="257"/>
      <point x="367" y="168" type="curve" smooth="yes"/>
      <point x="367" y="155"/>
      <point x="368" y="143"/>
      <point x="369" y="133" type="curve"/>
      <point x="360" y="132"/>
      <point x="350" y="131"/>
      <point x="340" y="131" type="curve" smooth="yes"/>
      <point x="227" y="131"/>
      <point x="183" y="185"/>
    </contour>
    <contour>
      <point x="979" y="335" type="curve"/>
      <point x="952" y="354" type="line"/>
      <point x="952" y="285"/>
      <point x="963" y="249"/>
      <point x="1006" y="249" type="curve" smooth="yes"/>
      <point x="1033" y="249"/>
      <point x="1051" y="257"/>
      <point x="1061" y="267" type="curve"/>
      <point x="1045" y="296"/>
      <point x="1039" y="361"/>
      <point x="1053" y="409" type="curve"/>
      <point x="1041" y="416"/>
      <point x="1023" y="420"/>
      <point x="1002" y="420" type="curve" smooth="yes"/>
      <point x="977" y="420"/>
      <point x="955" y="404"/>
      <point x="953" y="361" type="curve"/>
      <point x="972" y="388" type="line"/>
      <point x="901.0" y="382"/>
      <point x="864.0" y="378"/>
      <point x="799" y="374" type="curve"/>
      <point x="793" y="327" type="line"/>
      <point x="846.0" y="330"/>
      <point x="915.0" y="333"/>
    </contour>
  </outline>
</glyph>
<glyph name="uni12D3" format="2">
  <advance width="800"/>
  <unicode hex="12D3"/>
  <outline>
    <contour>
      <point x="511" y="343" type="curve"/>
      <point x="471" y="306" type="line"/>
      <point x="576" y="271"/>
      <point x="626" y="208"/>
      <point x="626" y="61" type="curve" smooth="yes"/>
      <point x="626" y="36"/>
      <point x="621" y="20"/>
      <point x="616" y="10" type="curve"/>
      <point x="632" y="1"/>
      <point x="651" y="-5"/>
      <point x="672" y="-5" type="curve" smooth="yes"/>
      <point x="701" y="-5"/>
      <point x="720" y="12"/>
      <point x="720" y="56" type="curve" smooth="yes"/>
      <point x="720" y="170"/>
      <point x="650" y="304"/>
    </contour>
    <contour>
      <point x="332" y="23" type="curve" smooth="yes"/>
      <point x="369" y="23"/>
      <point x="387" y="47"/>
      <point x="387" y="87" type="curve"/>
      <point x="338" y="31" type="line"/>
      <point x="481" y="155"/>
      <point x="628" y="414"/>
      <point x="628" y="530" type="curve" smooth="yes"/>
      <point x="628" y="589"/>
      <point x="601" y="625"/>
      <point x="476" y="625" type="curve" smooth="yes"/>
      <point x="355" y="625"/>
      <point x="207" y="605"/>
      <point x="120" y="573" type="curve" smooth="yes"/>
      <point x="94" y="563"/>
      <point x="97" y="523"/>
      <point x="122" y="515" type="curve"/>
      <point x="131" y="518" type="line"/>
      <point x="126" y="481"/>
      <point x="122" y="421"/>
      <point x="122" y="366" type="curve" smooth="yes"/>
      <point x="122" y="140"/>
      <point x="222" y="23"/>
    </contour>
    <contour>
      <point x="206" y="375" type="curve" smooth="yes"/>
      <point x="206" y="428"/>
      <point x="215" y="510"/>
      <point x="224" y="544" type="curve"/>
      <point x="290" y="560"/>
      <point x="392" y="572"/>
      <point x="459" y="572" type="curve" smooth="yes"/>
      <point x="514" y="572"/>
      <point x="534" y="549"/>
      <point x="534" y="508" type="curve" smooth="yes"/>
      <point x="534" y="426"/>
      <point x="435" y="247"/>
      <point x="336" y="137" type="curve" smooth="yes"/>
      <point x="325" y="125"/>
      <point x="315" y="115"/>
      <point x="304" y="115" type="curve" smooth="yes"/>
      <point x="293" y="115"/>
      <point x="284" y="120"/>
      <point x="276" y="129" type="curve" smooth="yes"/>
      <point x="229" y="183"/>
      <point x="206" y="265"/>
    </contour>
  </outline>
</glyph>
<glyph name="uni12D4" format="2">
  <advance width="955"/>
  <unicode hex="12D4"/>
  <outline>
    <contour>
      <point x="332" y="23" type="curve" smooth="yes"/>
      <point x="369" y="23"/>
      <point x="387" y="47"/>
      <point x="387" y="87" type="curve"/>
      <point x="338" y="31" type="line"/>
      <point x="481" y="155"/>
      <point x="628" y="414"/>
      <point x="628" y="530" type="curve" smooth="yes"/>
      <point x="628" y="589"/>
      <point x="601" y="625"/>
      <point x="476" y="625" type="curve" smooth="yes"/>
      <point x="355" y="625"/>
      <point x="207" y="605"/>
      <point x="120" y="573" type="curve" smooth="yes"/>
      <point x="94" y="563"/>
      <point x="97" y="523"/>
      <point x="122" y="515" type="curve"/>
      <point x="131" y="518" type="line"/>
      <point x="126" y="481"/>
      <point x="122" y="421"/>
      <point x="122" y="366" type="curve" smooth="yes"/>
      <point x="122" y="140"/>
      <point x="222" y="23"/>
    </contour>
    <contour>
      <point x="206" y="375" type="curve" smooth="yes"/>
      <point x="206" y="428"/>
      <point x="215" y="510"/>
      <point x="224" y="544" type="curve"/>
      <point x="290" y="560"/>
      <point x="392" y="572"/>
      <point x="459" y="572" type="curve" smooth="yes"/>
      <point x="514" y="572"/>
      <point x="534" y="549"/>
      <point x="534" y="508" type="curve" smooth="yes"/>
      <point x="534" y="426"/>
      <point x="435" y="247"/>
      <point x="336" y="137" type="curve" smooth="yes"/>
      <point x="325" y="125"/>
      <point x="315" y="115"/>
      <point x="304" y="115" type="curve" smooth="yes"/>
      <point x="293" y="115"/>
      <point x="284" y="120"/>
      <point x="276" y="129" type="curve" smooth="yes"/>
      <point x="229" y="183"/>
      <point x="206" y="265"/>
    </contour>
    <contour>
      <point x="568.0" y="52" type="curve" smooth="yes"/>
      <point x="568.0" y="25.0"/>
      <point x="584.0" y="9.0"/>
      <point x="626" y="1" type="curve" smooth="yes"/>
      <point x="658" y="-6"/>
      <point x="748" y="-18.0"/>
      <point x="801" y="-18.0" type="curve" smooth="yes"/>
      <point x="841" y="-18.0"/>
      <point x="864" y="-9"/>
      <point x="883" y="13" type="curve" smooth="yes"/>
      <point x="906" y="41"/>
      <point x="914.0" y="86"/>
      <point x="914" y="115" type="curve" smooth="yes"/>
      <point x="914.0" y="145.1153846153846"/>
      <point x="904.0" y="162.96153846153845"/>
      <point x="882" y="173" type="curve" smooth="yes"/>
      <point x="829" y="195.0"/>
      <point x="714" y="211.0"/>
      <point x="640" y="215" type="curve"/>
      <point x="682" y="175" type="line"/>
      <point x="702.0" y="246.0"/>
      <point x="751.0" y="326.0"/>
      <point x="751" y="350" type="curve" smooth="yes"/>
      <point x="751" y="372"/>
      <point x="738" y="380"/>
      <point x="701" y="380" type="curve" smooth="yes"/>
      <point x="669" y="380"/>
      <point x="542" y="372"/>
      <point x="507" y="372" type="curve"/>
      <point x="497" y="316" type="line"/>
      <point x="544" y="324"/>
      <point x="641" y="328"/>
      <point x="677" y="331" type="curve"/>
      <point x="664" y="348" type="line"/>
      <point x="624.1702127659574" y="259.3957597173145"/>
      <point x="568.0" y="112"/>
    </contour>
    <contour>
      <point x="662.0" y="71" type="curve" smooth="yes"/>
      <point x="662.0" y="107.0"/>
      <point x="675" y="158.0"/>
      <point x="684" y="158.0" type="curve" smooth="yes"/>
      <point x="734" y="158.0"/>
      <point x="794" y="147.0"/>
      <point x="817" y="135" type="curve" smooth="yes"/>
      <point x="824" y="131"/>
      <point x="828" y="124"/>
      <point x="828" y="108" type="curve" smooth="yes"/>
      <point x="828.0" y="84.0"/>
      <point x="821" y="66"/>
      <point x="810" y="51" type="curve" smooth="yes"/>
      <point x="802" y="41"/>
      <point x="790" y="37.0"/>
      <point x="771" y="37" type="curve" smooth="yes"/>
      <point x="744.0" y="37"/>
      <point x="713" y="38.0"/>
      <point x="687" y="43" type="curve" smooth="yes"/>
      <point x="672" y="46.0"/>
      <point x="662" y="53"/>
    </contour>
  </outline>
</glyph>
<glyph name="uni12D5" format="2">
  <advance width="680"/>
  <unicode hex="12D5"/>
  <outline>
    <contour>
      <point x="294" y="508" type="curve"/>
      <point x="374" y="512" type="line"/>
      <point x="355" y="552"/>
      <point x="341" y="584"/>
      <point x="341" y="599" type="curve" smooth="yes"/>
      <point x="341" y="613"/>
      <point x="347" y="621"/>
      <point x="361" y="625" type="curve"/>
      <point x="353" y="657"/>
      <point x="327" y="677"/>
      <point x="288" y="677" type="curve" smooth="yes"/>
      <point x="253" y="677"/>
      <point x="237" y="659"/>
      <point x="237" y="635" type="curve" smooth="yes"/>
      <point x="237" y="601"/>
      <point x="261" y="556"/>
    </contour>
    <contour>
      <point x="325" y="-7" type="curve" smooth="yes"/>
      <point x="362" y="-7"/>
      <point x="380" y="17"/>
      <point x="380" y="57" type="curve"/>
      <point x="331" y="1" type="line"/>
      <point x="463" y="115"/>
      <point x="601" y="346"/>
      <point x="601" y="450" type="curve" smooth="yes"/>
      <point x="601" y="509"/>
      <point x="574" y="545"/>
      <point x="449" y="545" type="curve" smooth="yes"/>
      <point x="335" y="545"/>
      <point x="196" y="523"/>
      <point x="113" y="493" type="curve" smooth="yes"/>
      <point x="87" y="483"/>
      <point x="90" y="443"/>
      <point x="115" y="435" type="curve"/>
      <point x="124" y="438" type="line"/>
      <point x="120" y="408"/>
      <point x="115" y="360"/>
      <point x="115" y="316" type="curve" smooth="yes"/>
      <point x="115" y="103"/>
      <point x="215" y="-7"/>
    </contour>
    <contour>
      <point x="199" y="325" type="curve" smooth="yes"/>
      <point x="199" y="369"/>
      <point x="210" y="436"/>
      <point x="217" y="464" type="curve"/>
      <point x="278" y="479"/>
      <point x="371" y="492"/>
      <point x="432" y="492" type="curve" smooth="yes"/>
      <point x="487" y="492"/>
      <point x="507" y="469"/>
      <point x="507" y="428" type="curve" smooth="yes"/>
      <point x="507" y="357"/>
      <point x="417" y="204"/>
      <point x="329" y="107" type="curve" smooth="yes"/>
      <point x="318" y="95"/>
      <point x="308" y="85"/>
      <point x="297" y="85" type="curve" smooth="yes"/>
      <point x="286" y="85"/>
      <point x="277" y="90"/>
      <point x="269" y="99" type="curve" smooth="yes"/>
      <point x="224" y="151"/>
      <point x="199" y="224"/>
    </contour>
  </outline>
</glyph>
<glyph name="uni12D6" format="2">
  <advance width="759"/>
  <unicode hex="12D6"/>
  <outline>
    <contour>
      <point x="383" y="43" type="curve" smooth="yes"/>
      <point x="420" y="43"/>
      <point x="438" y="67"/>
      <point x="438" y="107" type="curve"/>
      <point x="389" y="51" type="line"/>
      <point x="532" y="175"/>
      <point x="679" y="434"/>
      <point x="679" y="550" type="curve" smooth="yes"/>
      <point x="679" y="609"/>
      <point x="652" y="645"/>
      <point x="527" y="645" type="curve" smooth="yes"/>
      <point x="406" y="645"/>
      <point x="258" y="625"/>
      <point x="171" y="593" type="curve" smooth="yes"/>
      <point x="145" y="583"/>
      <point x="148" y="543"/>
      <point x="173" y="535" type="curve"/>
      <point x="182" y="538" type="line"/>
      <point x="177" y="501"/>
      <point x="173" y="441"/>
      <point x="173" y="386" type="curve" smooth="yes"/>
      <point x="173" y="160"/>
      <point x="273" y="43"/>
    </contour>
    <contour>
      <point x="257" y="395" type="curve" smooth="yes"/>
      <point x="257" y="448"/>
      <point x="266" y="530"/>
      <point x="275" y="564" type="curve"/>
      <point x="341" y="580"/>
      <point x="443" y="592"/>
      <point x="510" y="592" type="curve" smooth="yes"/>
      <point x="565" y="592"/>
      <point x="585" y="569"/>
      <point x="585" y="528" type="curve" smooth="yes"/>
      <point x="585" y="446"/>
      <point x="486" y="267"/>
      <point x="387" y="157" type="curve" smooth="yes"/>
      <point x="376" y="145"/>
      <point x="366" y="135"/>
      <point x="355" y="135" type="curve" smooth="yes"/>
      <point x="344" y="135"/>
      <point x="335" y="140"/>
      <point x="327" y="149" type="curve" smooth="yes"/>
      <point x="280" y="203"/>
      <point x="257" y="285"/>
    </contour>
    <contour>
      <point x="188" y="334" type="line"/>
      <point x="104.24161073825503" y="230.0"/>
      <point x="32.0" y="113.0"/>
      <point x="32" y="51" type="curve" smooth="yes"/>
      <point x="32.0" y="4.0"/>
      <point x="58.6" y="-13.0"/>
      <point x="89" y="-13.0" type="curve" smooth="yes"/>
      <point x="121" y="-13.0"/>
      <point x="146" y="5.0"/>
      <point x="147" y="40" type="curve"/>
      <point x="137.83333333333334" y="43.0"/>
      <point x="132.0" y="52.0"/>
      <point x="132.0" y="69" type="curve" smooth="yes"/>
      <point x="132.0" y="113.0"/>
      <point x="174.30769230769232" y="199.0"/>
      <point x="242" y="274" type="curve"/>
    </contour>
  </outline>
</glyph>
<glyph name="uni12E8" format="2">
  <advance width="585"/>
  <unicode hex="12E8"/>
  <outline>
    <contour>
      <point x="338" y="-5" type="curve" smooth="yes"/>
      <point x="371" y="-5"/>
      <point x="390" y="11"/>
      <point x="407" y="42" type="curve"/>
      <point x="375" y="60"/>
      <point x="349" y="144"/>
      <point x="319" y="241" type="curve"/>
      <point x="423" y="354"/>
      <point x="514" y="488"/>
      <point x="514" y="575" type="curve" smooth="yes"/>
      <point x="514" y="621"/>
      <point x="481" y="651"/>
      <point x="414" y="651" type="curve" smooth="yes"/>
      <point x="354" y="651"/>
      <point x="173" y="618"/>
      <point x="126" y="608" type="curve"/>
      <point x="75" y="615"/>
      <point x="52" y="589"/>
      <point x="60" y="556" type="curve"/>
      <point x="80" y="546"/>
      <point x="97" y="529"/>
      <point x="128" y="479" type="curve" smooth="yes"/>
      <point x="210" y="346"/>
      <point x="258" y="163"/>
      <point x="287" y="43" type="curve" smooth="yes"/>
      <point x="294" y="14"/>
      <point x="311" y="-5"/>
    </contour>
    <contour>
      <point x="195" y="550" type="curve" smooth="yes"/>
      <point x="195" y="563"/>
      <point x="209" y="573"/>
      <point x="233" y="579" type="curve" smooth="yes"/>
      <point x="269" y="588"/>
      <point x="345" y="597"/>
      <point x="387" y="597" type="curve" smooth="yes"/>
      <point x="410" y="597"/>
      <point x="423" y="582"/>
      <point x="423" y="563" type="curve" smooth="yes"/>
      <point x="423" y="523"/>
      <point x="369" y="401"/>
      <point x="296" y="314" type="curve"/>
      <point x="255" y="435"/>
      <point x="195" y="520"/>
    </contour>
  </outline>
</glyph>
<glyph name="uni12ED" format="2">
  <advance width="681"/>
  <unicode hex="12ED"/>
  <outline>
    <contour>
      <point x="257" y="-4"/>
      <point x="456" y="19"/>
      <point x="556" y="19" type="curve" smooth="yes"/>
      <point x="586" y="19"/>
      <point x="601" y="33"/>
      <point x="601" y="57" type="curve" smooth="yes"/>
      <point x="601" y="96"/>
      <point x="599" y="139"/>
      <point x="613" y="179" type="curve"/>
      <point x="592" y="188"/>
      <point x="572" y="194"/>
      <point x="549" y="194" type="curve" smooth="yes"/>
      <point x="513" y="194"/>
      <point x="498" y="157"/>
      <point x="494" y="72" type="curve"/>
      <point x="435" y="63"/>
      <point x="267" y="46"/>
      <point x="185" y="42" type="curve" smooth="yes"/>
      <point x="128" y="39"/>
      <point x="100" y="-6"/>
      <point x="100" y="-49" type="curve" smooth="yes"/>
      <point x="100" y="-76"/>
      <point x="115" y="-101"/>
      <point x="151" y="-101" type="curve" smooth="yes"/>
      <point x="174" y="-101"/>
      <point x="189" y="-99"/>
      <point x="205" y="-93" type="curve"/>
      <point x="201" y="-62"/>
      <point x="211" y="-27"/>
      <point x="223" y="-8" type="curve"/>
    </contour>
    <contour>
      <point x="341" y="5" type="curve" smooth="yes"/>
      <point x="374" y="5"/>
      <point x="393" y="11"/>
      <point x="410" y="42" type="curve"/>
      <point x="378" y="60"/>
      <point x="352" y="144"/>
      <point x="322" y="241" type="curve"/>
      <point x="426" y="354"/>
      <point x="517" y="488"/>
      <point x="517" y="575" type="curve" smooth="yes"/>
      <point x="517" y="621"/>
      <point x="484" y="651"/>
      <point x="417" y="651" type="curve" smooth="yes"/>
      <point x="357" y="651"/>
      <point x="176" y="618"/>
      <point x="129" y="608" type="curve"/>
      <point x="78" y="615"/>
      <point x="55" y="589"/>
      <point x="63" y="556" type="curve"/>
      <point x="83" y="546"/>
      <point x="100" y="529"/>
      <point x="131" y="479" type="curve" smooth="yes"/>
      <point x="213" y="346"/>
      <point x="261" y="163"/>
      <point x="290" y="43" type="curve" smooth="yes"/>
      <point x="297" y="14"/>
      <point x="314" y="5"/>
    </contour>
    <contour>
      <point x="198" y="550" type="curve" smooth="yes"/>
      <point x="198" y="563"/>
      <point x="212" y="573"/>
      <point x="236" y="579" type="curve" smooth="yes"/>
      <point x="272" y="588"/>
      <point x="348" y="597"/>
      <point x="390" y="597" type="curve" smooth="yes"/>
      <point x="413" y="597"/>
      <point x="426" y="582"/>
      <point x="426" y="563" type="curve" smooth="yes"/>
      <point x="426" y="523"/>
      <point x="372" y="401"/>
      <point x="299" y="314" type="curve"/>
      <point x="258" y="435"/>
      <point x="198" y="520"/>
    </contour>
  </outline>
</glyph>
<glyph name="uni12F4" format="2">
  <advance width="720"/>
  <unicode hex="12F4"/>
  <outline>
    <contour>
      <point x="320" y="248" type="line"/>
      <point x="431" y="360"/>
      <point x="546" y="489"/>
      <point x="546" y="575" type="curve" smooth="yes"/>
      <point x="546" y="621"/>
      <point x="513" y="651"/>
      <point x="446" y="651" type="curve" smooth="yes"/>
      <point x="389" y="651"/>
      <point x="207" y="618"/>
      <point x="163" y="614" type="curve"/>
      <point x="165" y="558" type="line"/>
      <point x="238" y="571"/>
      <point x="376" y="597"/>
      <point x="427" y="597" type="curve" smooth="yes"/>
      <point x="450" y="597"/>
      <point x="463" y="582"/>
      <point x="463" y="563" type="curve" smooth="yes"/>
      <point x="463" y="523"/>
      <point x="379" y="401"/>
      <point x="295" y="317" type="curve"/>
    </contour>
    <contour>
      <point x="338" y="206" type="line"/>
      <point x="336" y="233"/>
      <point x="335" y="262"/>
      <point x="335" y="291" type="curve"/>
      <point x="315" y="380"/>
      <point x="275" y="464"/>
      <point x="239" y="529" type="curve" smooth="yes"/>
      <point x="203" y="594"/>
      <point x="188" y="614"/>
      <point x="163" y="614" type="curve" smooth="yes"/>
      <point x="130" y="614"/>
      <point x="99" y="592"/>
      <point x="99" y="564" type="curve"/>
      <point x="110" y="561"/>
      <point x="129" y="548"/>
      <point x="163" y="494" type="curve" smooth="yes"/>
      <point x="209" y="421"/>
      <point x="255" y="308"/>
      <point x="255" y="265" type="curve" smooth="yes"/>
      <point x="255" y="246"/>
      <point x="255" y="226"/>
      <point x="255" y="206" type="curve"/>
    </contour>
    <contour>
      <point x="421" y="93" type="curve" smooth="yes"/>
      <point x="421" y="136"/>
      <point x="438" y="188"/>
      <point x="488" y="188" type="curve" smooth="yes"/>
      <point x="541" y="188"/>
      <point x="562" y="165"/>
      <point x="562" y="110" type="curve" smooth="yes"/>
      <point x="562" y="69"/>
      <point x="538" y="29"/>
      <point x="483" y="29" type="curve" smooth="yes"/>
      <point x="447" y="29"/>
      <point x="421" y="51"/>
    </contour>
    <contour>
      <point x="493" y="209" type="line"/>
      <point x="485" y="224"/>
      <point x="460" y="239"/>
      <point x="423" y="239" type="curve" smooth="yes"/>
      <point x="395" y="239"/>
      <point x="250" y="227"/>
      <point x="180" y="221" type="curve"/>
      <point x="111" y="234"/>
      <point x="73" y="204"/>
      <point x="73" y="142" type="curve" smooth="yes"/>
      <point x="73" y="104"/>
      <point x="95" y="89"/>
      <point x="127" y="89" type="curve" smooth="yes"/>
      <point x="154" y="89"/>
      <point x="176" y="96"/>
      <point x="190" y="103" type="curve"/>
      <point x="185" y="125"/>
      <point x="187" y="159"/>
      <point x="197" y="177" type="curve"/>
      <point x="241" y="181"/>
      <point x="301" y="184"/>
      <point x="373" y="189" type="curve"/>
      <point x="368" y="212" type="line"/>
      <point x="343" y="153"/>
      <point x="331" y="121"/>
      <point x="331" y="81" type="curve" smooth="yes"/>
      <point x="331" y="10"/>
      <point x="396" y="-30"/>
      <point x="468" y="-30" type="curve" smooth="yes"/>
      <point x="593" y="-30"/>
      <point x="647" y="29"/>
      <point x="647" y="114" type="curve" smooth="yes"/>
      <point x="647" y="207"/>
      <point x="589" y="240"/>
      <point x="504" y="240" type="curve" smooth="yes"/>
      <point x="462" y="240"/>
      <point x="438" y="236"/>
      <point x="411" y="224" type="curve"/>
    </contour>
  </outline>
</glyph>
<glyph name="uni12F7" format="2">
  <advance width="741"/>
  <unicode hex="12F7"/>
  <outline>
    <contour>
      <point x="320" y="248" type="line"/>
      <point x="431" y="360"/>
      <point x="546" y="489"/>
      <point x="546" y="575" type="curve" smooth="yes"/>
      <point x="546" y="621"/>
      <point x="513" y="651"/>
      <point x="446" y="651" type="curve" smooth="yes"/>
      <point x="389" y="651"/>
      <point x="207" y="618"/>
      <point x="163" y="614" type="curve"/>
      <point x="165" y="558" type="line"/>
      <point x="238" y="571"/>
      <point x="376" y="597"/>
      <point x="427" y="597" type="curve" smooth="yes"/>
      <point x="450" y="597"/>
      <point x="463" y="582"/>
      <point x="463" y="563" type="curve" smooth="yes"/>
      <point x="463" y="523"/>
      <point x="379" y="401"/>
      <point x="295" y="317" type="curve"/>
    </contour>
    <contour>
      <point x="197" y="177" type="curve"/>
      <point x="241" y="181"/>
      <point x="381" y="195"/>
      <point x="453" y="200" type="curve"/>
      <point x="448" y="221" type="line"/>
      <point x="423" y="162"/>
      <point x="391" y="59"/>
      <point x="391" y="19" type="curve"/>
      <point x="487" y="21" type="line"/>
      <point x="493" y="84"/>
      <point x="515" y="170"/>
      <point x="541" y="224" type="curve"/>
      <point x="520" y="238"/>
      <point x="482" y="248"/>
      <point x="473" y="248" type="curve" smooth="yes"/>
      <point x="445" y="248"/>
      <point x="250" y="227"/>
      <point x="180" y="221" type="curve"/>
      <point x="111" y="234"/>
      <point x="73" y="204"/>
      <point x="73" y="142" type="curve" smooth="yes"/>
      <point x="73" y="104"/>
      <point x="95" y="89"/>
      <point x="127" y="89" type="curve" smooth="yes"/>
      <point x="154" y="89"/>
      <point x="176" y="96"/>
      <point x="190" y="103" type="curve"/>
      <point x="185" y="125"/>
      <point x="187" y="159"/>
    </contour>
    <contour>
      <point x="338" y="206" type="line"/>
      <point x="336" y="233"/>
      <point x="335" y="262"/>
      <point x="335" y="291" type="curve"/>
      <point x="315" y="380"/>
      <point x="275" y="464"/>
      <point x="239" y="529" type="curve" smooth="yes"/>
      <point x="203" y="594"/>
      <point x="188" y="614"/>
      <point x="163" y="614" type="curve" smooth="yes"/>
      <point x="130" y="614"/>
      <point x="99" y="592"/>
      <point x="99" y="564" type="curve"/>
      <point x="110" y="561"/>
      <point x="129" y="548"/>
      <point x="163" y="494" type="curve" smooth="yes"/>
      <point x="209" y="421"/>
      <point x="255" y="308"/>
      <point x="255" y="265" type="curve" smooth="yes"/>
      <point x="255" y="246"/>
      <point x="255" y="226"/>
      <point x="255" y="206" type="curve"/>
    </contour>
    <contour>
      <point x="308" y="-16" type="curve"/>
      <point x="352" y="-12"/>
      <point x="522" y="3"/>
      <point x="594" y="8" type="curve"/>
      <point x="581" y="31" type="line"/>
      <point x="580" y="-45"/>
      <point x="607" y="-69"/>
      <point x="662" y="-69" type="curve" smooth="yes"/>
      <point x="675" y="-69"/>
      <point x="693" y="-67"/>
      <point x="705" y="-63" type="curve"/>
      <point x="696" y="-39"/>
      <point x="692" y="4"/>
      <point x="695" y="31" type="curve"/>
      <point x="662" y="43"/>
      <point x="617" y="57"/>
      <point x="607" y="57" type="curve" smooth="yes"/>
      <point x="580" y="57"/>
      <point x="359" y="34"/>
      <point x="291" y="28" type="curve"/>
      <point x="222" y="41"/>
      <point x="184" y="11"/>
      <point x="184" y="-51" type="curve" smooth="yes"/>
      <point x="184" y="-89"/>
      <point x="206" y="-104"/>
      <point x="238" y="-104" type="curve" smooth="yes"/>
      <point x="265" y="-104"/>
      <point x="287" y="-97"/>
      <point x="301" y="-90" type="curve"/>
      <point x="296" y="-68"/>
      <point x="298" y="-34"/>
    </contour>
  </outline>
</glyph>
<glyph name="uni130A" format="2">
  <advance width="640"/>
  <unicode hex="130A"/>
  <outline>
    <contour>
      <point x="320" y="78" type="curve" smooth="yes"/>
      <point x="320" y="153"/>
      <point x="495" y="445"/>
      <point x="495" y="534" type="curve" smooth="yes"/>
      <point x="495" y="592"/>
      <point x="449" y="617"/>
      <point x="391" y="617" type="curve" smooth="yes"/>
      <point x="319" y="617"/>
      <point x="217" y="590"/>
      <point x="126" y="556" type="curve"/>
      <point x="183" y="567" type="line"/>
      <point x="162" y="574"/>
      <point x="144" y="578"/>
      <point x="129" y="578" type="curve" smooth="yes"/>
      <point x="81" y="578"/>
      <point x="63" y="549"/>
      <point x="63" y="507" type="curve" smooth="yes"/>
      <point x="63" y="454"/>
      <point x="81" y="428"/>
      <point x="126" y="428" type="curve" smooth="yes"/>
      <point x="143" y="428"/>
      <point x="162" y="433"/>
      <point x="183" y="441" type="curve"/>
      <point x="176" y="470"/>
      <point x="172" y="503"/>
      <point x="196" y="559" type="curve"/>
      <point x="150" y="512" type="line"/>
      <point x="229" y="546"/>
      <point x="306" y="567"/>
      <point x="352" y="567" type="curve" smooth="yes"/>
      <point x="389" y="567"/>
      <point x="400" y="550"/>
      <point x="400" y="524" type="curve" smooth="yes"/>
      <point x="400" y="426"/>
      <point x="220" y="156"/>
      <point x="220" y="51" type="curve" smooth="yes"/>
      <point x="220" y="14"/>
      <point x="245" y="-8"/>
      <point x="287" y="-8" type="curve" smooth="yes"/>
      <point x="317" y="-8"/>
      <point x="394" y="8"/>
      <point x="485" y="28" type="curve"/>
      <point x="479" y="51" type="line"/>
      <point x="478" y="-25"/>
      <point x="498" y="-49"/>
      <point x="553" y="-49" type="curve" smooth="yes"/>
      <point x="566" y="-49"/>
      <point x="584" y="-47"/>
      <point x="596" y="-43" type="curve"/>
      <point x="587" y="-19"/>
      <point x="583" y="24"/>
      <point x="586" y="51" type="curve"/>
      <point x="553" y="63"/>
      <point x="508" y="74"/>
      <point x="498" y="74" type="curve" smooth="yes"/>
      <point x="468" y="74"/>
      <point x="392" y="47"/>
      <point x="359" y="47" type="curve" smooth="yes"/>
      <point x="333" y="47"/>
      <point x="320" y="54"/>
    </contour>
  </outline>
</glyph>
<glyph name="uni130D" format="2">
  <advance width="676"/>
  <unicode hex="130D"/>
  <outline>
    <contour>
      <point x="455" y="567" type="curve" smooth="yes"/>
      <point x="492" y="567"/>
      <point x="503" y="550"/>
      <point x="503" y="524" type="curve" smooth="yes"/>
      <point x="503" y="426"/>
      <point x="323" y="140"/>
      <point x="323" y="35" type="curve" smooth="yes"/>
      <point x="323" y="7"/>
      <point x="344" y="-3"/>
      <point x="364" y="-3" type="curve" smooth="yes"/>
      <point x="390" y="-3"/>
      <point x="409" y="4"/>
      <point x="424" y="18" type="curve"/>
      <point x="397" y="114"/>
      <point x="598" y="445"/>
      <point x="598" y="534" type="curve" smooth="yes"/>
      <point x="598" y="592"/>
      <point x="552" y="617"/>
      <point x="489" y="617" type="curve" smooth="yes"/>
      <point x="262" y="617"/>
      <point x="65" y="534"/>
      <point x="65" y="430" type="curve" smooth="yes"/>
      <point x="65" y="377"/>
      <point x="112" y="332"/>
      <point x="207" y="332" type="curve" smooth="yes"/>
      <point x="308" y="332"/>
      <point x="411" y="381"/>
      <point x="411" y="478" type="curve" smooth="yes"/>
      <point x="411" y="509"/>
      <point x="397" y="550"/>
      <point x="365" y="582" type="curve"/>
      <point x="353" y="554" type="line"/>
      <point x="390" y="563"/>
      <point x="430" y="567"/>
    </contour>
    <contour>
      <point x="154" y="440" type="curve" smooth="yes"/>
      <point x="154" y="493"/>
      <point x="219" y="533"/>
      <point x="272" y="533" type="curve" smooth="yes"/>
      <point x="308" y="533"/>
      <point x="329" y="507"/>
      <point x="329" y="464" type="curve" smooth="yes"/>
      <point x="329" y="404"/>
      <point x="265" y="379"/>
      <point x="220" y="379" type="curve" smooth="yes"/>
      <point x="179" y="379"/>
      <point x="154" y="400"/>
    </contour>
  </outline>
</glyph>
<glyph name="uni130E" format="2">
  <advance width="555"/>
  <unicode hex="130E"/>
  <outline>
    <contour>
      <point x="475" y="454" type="curve" smooth="yes"/>
      <point x="475" y="512"/>
      <point x="429" y="537"/>
      <point x="371" y="537" type="curve" smooth="yes"/>
      <point x="304" y="537"/>
      <point x="211" y="508"/>
      <point x="126" y="476" type="curve"/>
      <point x="183" y="487" type="line"/>
      <point x="162" y="494"/>
      <point x="144" y="498"/>
      <point x="129" y="498" type="curve" smooth="yes"/>
      <point x="81" y="498"/>
      <point x="63" y="469"/>
      <point x="63" y="427" type="curve" smooth="yes"/>
      <point x="63" y="374"/>
      <point x="81" y="348"/>
      <point x="126" y="348" type="curve" smooth="yes"/>
      <point x="143" y="348"/>
      <point x="162" y="353"/>
      <point x="183" y="361" type="curve"/>
      <point x="176" y="390"/>
      <point x="172" y="423"/>
      <point x="196" y="479" type="curve"/>
      <point x="150" y="432" type="line"/>
      <point x="222" y="463"/>
      <point x="291" y="487"/>
      <point x="332" y="487" type="curve" smooth="yes"/>
      <point x="369" y="487"/>
      <point x="380" y="470"/>
      <point x="380" y="444" type="curve" smooth="yes"/>
      <point x="380" y="362"/>
      <point x="240" y="123"/>
      <point x="240" y="35" type="curve" smooth="yes"/>
      <point x="240" y="7"/>
      <point x="261" y="-3"/>
      <point x="281" y="-3" type="curve" smooth="yes"/>
      <point x="307" y="-3"/>
      <point x="326" y="4"/>
      <point x="341" y="18" type="curve"/>
      <point x="318" y="99"/>
      <point x="475" y="379"/>
    </contour>
    <contour>
      <point x="325" y="498" type="line"/>
      <point x="327" y="537"/>
      <point x="333" y="581"/>
      <point x="346" y="606" type="curve"/>
      <point x="366" y="617"/>
      <point x="378" y="623"/>
      <point x="378" y="639" type="curve" smooth="yes"/>
      <point x="378" y="666"/>
      <point x="304" y="697"/>
      <point x="255" y="697" type="curve" smooth="yes"/>
      <point x="227" y="697"/>
      <point x="215" y="673"/>
      <point x="221" y="655" type="curve"/>
      <point x="245" y="647"/>
      <point x="257" y="638"/>
      <point x="257" y="619" type="curve" smooth="yes"/>
      <point x="257" y="598"/>
      <point x="256" y="551"/>
      <point x="249" y="498" type="curve"/>
    </contour>
  </outline>
</glyph>
<glyph name="uni1310" format="2">
  <advance width="870"/>
  <unicode hex="1310"/>
  <outline>
    <contour>
      <point x="495" y="534" type="curve" smooth="yes"/>
      <point x="495" y="592"/>
      <point x="449" y="617"/>
      <point x="391" y="617" type="curve" smooth="yes"/>
      <point x="319" y="617"/>
      <point x="217" y="590"/>
      <point x="126" y="556" type="curve"/>
      <point x="183" y="567" type="line"/>
      <point x="162" y="574"/>
      <point x="144" y="578"/>
      <point x="129" y="578" type="curve" smooth="yes"/>
      <point x="81" y="578"/>
      <point x="63" y="549"/>
      <point x="63" y="507" type="curve" smooth="yes"/>
      <point x="63" y="454"/>
      <point x="81" y="428"/>
      <point x="126" y="428" type="curve" smooth="yes"/>
      <point x="143" y="428"/>
      <point x="162" y="433"/>
      <point x="183" y="441" type="curve"/>
      <point x="176" y="470"/>
      <point x="172" y="503"/>
      <point x="196" y="559" type="curve"/>
      <point x="150" y="512" type="line"/>
      <point x="229" y="546"/>
      <point x="306" y="567"/>
      <point x="352" y="567" type="curve" smooth="yes"/>
      <point x="389" y="567"/>
      <point x="400" y="550"/>
      <point x="400" y="524" type="curve" smooth="yes"/>
      <point x="400" y="426"/>
      <point x="220" y="140"/>
      <point x="220" y="35" type="curve" smooth="yes"/>
      <point x="220" y="7"/>
      <point x="241" y="-3"/>
      <point x="261" y="-3" type="curve" smooth="yes"/>
      <point x="287" y="-3"/>
      <point x="306" y="4"/>
      <point x="321" y="18" type="curve"/>
      <point x="294" y="114"/>
      <point x="495" y="445"/>
    </contour>
    <contour>
      <point x="797.0" y="286.0" type="curve" smooth="yes"/>
      <point x="797.0" y="339.02127659574467"/>
      <point x="758.0" y="375.0"/>
      <point x="679" y="375" type="curve" smooth="yes"/>
      <point x="602" y="375.0"/>
      <point x="462" y="339"/>
      <point x="355" y="313" type="curve"/>
      <point x="376" y="262" type="line"/>
      <point x="405" y="269"/>
      <point x="432" y="278"/>
      <point x="499" y="292" type="curve"/>
      <point x="476" y="296" type="line"/>
      <point x="496.0" y="208"/>
      <point x="609" y="162"/>
      <point x="676.0" y="162.0" type="curve" smooth="yes"/>
      <point x="739.0" y="162.0"/>
      <point x="797.0" y="218.2689075630252"/>
    </contour>
    <contour>
      <point x="658" y="317" type="curve" smooth="yes"/>
      <point x="698.0" y="317.0"/>
      <point x="711.0" y="308.219512195122"/>
      <point x="711.0" y="281.0" type="curve" smooth="yes"/>
      <point x="711.0" y="253.64150943396226"/>
      <point x="692.0" y="223.0"/>
      <point x="665.0" y="223.0" type="curve" smooth="yes"/>
      <point x="624" y="223"/>
      <point x="561.0" y="253.0"/>
      <point x="561" y="285" type="curve" smooth="yes"/>
      <point x="561.0" y="304"/>
      <point x="609" y="317"/>
    </contour>
  </outline>
</glyph>
<glyph name="uni1325" format="2">
  <advance width="940"/>
  <unicode hex="1325"/>
  <outline>
    <contour>
      <point x="161" y="509" type="curve"/>
      <point x="167" y="431"/>
      <point x="86" y="271"/>
      <point x="86" y="224" type="curve" smooth="yes"/>
      <point x="86" y="196"/>
      <point x="103" y="183"/>
      <point x="129" y="183" type="curve" smooth="yes"/>
      <point x="156" y="183"/>
      <point x="174" y="187"/>
      <point x="192" y="193" type="curve"/>
      <point x="190" y="203"/>
      <point x="188" y="212"/>
      <point x="188" y="228" type="curve" smooth="yes"/>
      <point x="188" y="294"/>
      <point x="255" y="451"/>
      <point x="255" y="495" type="curve" smooth="yes"/>
      <point x="255" y="515"/>
      <point x="243" y="524"/>
      <point x="219" y="524" type="curve" smooth="yes"/>
      <point x="196" y="524"/>
      <point x="175" y="522"/>
    </contour>
    <contour>
      <point x="509" y="547" type="curve"/>
      <point x="484" y="475" type="line"/>
      <point x="573" y="489"/>
      <point x="628" y="492"/>
      <point x="684" y="492" type="curve" smooth="yes"/>
      <point x="730" y="492"/>
      <point x="753" y="477"/>
      <point x="753" y="437" type="curve" smooth="yes"/>
      <point x="753" y="372"/>
      <point x="716" y="261"/>
      <point x="716" y="232" type="curve" smooth="yes"/>
      <point x="716" y="197"/>
      <point x="738" y="176"/>
      <point x="770" y="176" type="curve" smooth="yes"/>
      <point x="787" y="176"/>
      <point x="810" y="181"/>
      <point x="823" y="197" type="curve"/>
      <point x="816" y="213"/>
      <point x="811" y="232"/>
      <point x="811" y="254" type="curve" smooth="yes"/>
      <point x="811" y="327"/>
      <point x="845" y="447"/>
      <point x="845" y="492" type="curve" smooth="yes"/>
      <point x="845" y="538"/>
      <point x="817" y="559"/>
      <point x="762" y="559" type="curve" smooth="yes"/>
      <point x="687" y="559"/>
      <point x="599" y="551"/>
    </contour>
    <contour>
      <point x="552" y="499" type="curve" smooth="yes"/>
      <point x="552" y="532"/>
      <point x="535" y="550"/>
      <point x="498" y="550" type="curve" smooth="yes"/>
      <point x="474" y="550"/>
      <point x="262" y="531"/>
      <point x="154" y="531" type="curve" smooth="yes"/>
      <point x="123" y="531"/>
      <point x="106" y="513"/>
      <point x="106" y="491" type="curve" smooth="yes"/>
      <point x="106" y="471"/>
      <point x="116" y="456"/>
      <point x="129" y="450" type="curve"/>
      <point x="185" y="472"/>
      <point x="333" y="492"/>
      <point x="425" y="492" type="curve" smooth="yes"/>
      <point x="451" y="492"/>
      <point x="460" y="478"/>
      <point x="460" y="458" type="curve" smooth="yes"/>
      <point x="460" y="416"/>
      <point x="406" y="323"/>
      <point x="406" y="291" type="curve" smooth="yes"/>
      <point x="406" y="256"/>
      <point x="454" y="182"/>
      <point x="454" y="153" type="curve" smooth="yes"/>
      <point x="454" y="121"/>
      <point x="430" y="70"/>
      <point x="430" y="41" type="curve" smooth="yes"/>
      <point x="430" y="6"/>
      <point x="448" y="-15"/>
      <point x="477" y="-15" type="curve" smooth="yes"/>
      <point x="497" y="-15"/>
      <point x="524" y="-11"/>
      <point x="538" y="6" type="curve"/>
      <point x="533" y="22"/>
      <point x="531" y="42"/>
      <point x="531" y="64" type="curve" smooth="yes"/>
      <point x="531" y="89"/>
      <point x="537" y="122"/>
      <point x="537" y="158" type="curve" smooth="yes"/>
      <point x="537" y="218"/>
      <point x="492" y="276"/>
      <point x="492" y="303" type="curve" smooth="yes"/>
      <point x="492" y="333"/>
      <point x="552" y="452"/>
    </contour>
  </outline>
</glyph>
<glyph name="uni1326" format="2">
  <advance width="1012"/>
  <unicode hex="1326"/>
  <outline>
    <contour>
      <point x="202" y="513" type="curve"/>
      <point x="212" y="385"/>
      <point x="77" y="92"/>
      <point x="77" y="45" type="curve" smooth="yes"/>
      <point x="77" y="17"/>
      <point x="94" y="4"/>
      <point x="120" y="4" type="curve" smooth="yes"/>
      <point x="147" y="4"/>
      <point x="165" y="8"/>
      <point x="183" y="14" type="curve"/>
      <point x="181" y="24"/>
      <point x="179" y="33"/>
      <point x="179" y="49" type="curve" smooth="yes"/>
      <point x="179" y="129"/>
      <point x="296" y="425"/>
      <point x="296" y="499" type="curve" smooth="yes"/>
      <point x="296" y="519"/>
      <point x="284" y="528"/>
      <point x="260" y="528" type="curve" smooth="yes"/>
      <point x="237" y="528"/>
      <point x="216" y="526"/>
    </contour>
    <contour>
      <point x="568" y="550" type="curve" smooth="yes"/>
      <point x="544" y="550"/>
      <point x="332" y="531"/>
      <point x="224" y="531" type="curve" smooth="yes"/>
      <point x="193" y="531"/>
      <point x="176" y="513"/>
      <point x="176" y="491" type="curve" smooth="yes"/>
      <point x="176" y="471"/>
      <point x="186" y="456"/>
      <point x="199" y="450" type="curve"/>
      <point x="255" y="472"/>
      <point x="403" y="492"/>
      <point x="495" y="492" type="curve" smooth="yes"/>
      <point x="518" y="492"/>
      <point x="526" y="478"/>
      <point x="526" y="458" type="curve" smooth="yes"/>
      <point x="526" y="368"/>
      <point x="430" y="176"/>
      <point x="430" y="81" type="curve" smooth="yes"/>
      <point x="430" y="46"/>
      <point x="448" y="25"/>
      <point x="482" y="25" type="curve" smooth="yes"/>
      <point x="506" y="25"/>
      <point x="523" y="33"/>
      <point x="537" y="46" type="curve"/>
      <point x="532" y="62"/>
      <point x="530" y="82"/>
      <point x="530" y="104" type="curve" smooth="yes"/>
      <point x="530" y="209"/>
      <point x="622" y="448"/>
      <point x="622" y="499" type="curve" smooth="yes"/>
      <point x="622" y="532"/>
      <point x="605" y="550"/>
    </contour>
    <contour>
      <point x="579" y="547" type="curve"/>
      <point x="554" y="475" type="line"/>
      <point x="643" y="489"/>
      <point x="698" y="492"/>
      <point x="754" y="492" type="curve" smooth="yes"/>
      <point x="800" y="492"/>
      <point x="823" y="477"/>
      <point x="823" y="437" type="curve" smooth="yes"/>
      <point x="823" y="375"/>
      <point x="796" y="269"/>
      <point x="796" y="242" type="curve" smooth="yes"/>
      <point x="796" y="207"/>
      <point x="818" y="186"/>
      <point x="850" y="186" type="curve" smooth="yes"/>
      <point x="867" y="186"/>
      <point x="890" y="191"/>
      <point x="903" y="207" type="curve"/>
      <point x="896" y="223"/>
      <point x="891" y="242"/>
      <point x="891" y="264" type="curve" smooth="yes"/>
      <point x="891" y="334"/>
      <point x="915" y="449"/>
      <point x="915" y="492" type="curve" smooth="yes"/>
      <point x="915" y="538"/>
      <point x="887" y="559"/>
      <point x="832" y="559" type="curve" smooth="yes"/>
      <point x="757" y="559"/>
      <point x="669" y="551"/>
    </contour>
  </outline>
</glyph>
<glyph name="uni1334" format="2">
  <advance width="815"/>
  <unicode hex="1334"/>
  <outline>
    <contour>
      <point x="331" y="515" type="curve" smooth="yes"/>
      <point x="402" y="515"/>
      <point x="428" y="500"/>
      <point x="428" y="469" type="curve" smooth="yes"/>
      <point x="428" y="425"/>
      <point x="386" y="359"/>
      <point x="298" y="299" type="curve"/>
      <point x="348" y="305" type="line"/>
      <point x="259" y="350"/>
      <point x="235" y="395"/>
      <point x="235" y="457" type="curve" smooth="yes"/>
      <point x="235" y="498"/>
      <point x="257" y="515"/>
    </contour>
    <contour>
      <point x="310" y="553" type="curve"/>
      <point x="394" y="557" type="line"/>
      <point x="371" y="594"/>
      <point x="362" y="616"/>
      <point x="362" y="642" type="curve" smooth="yes"/>
      <point x="362" y="659"/>
      <point x="370" y="666"/>
      <point x="388" y="672" type="curve"/>
      <point x="386" y="703"/>
      <point x="370" y="722"/>
      <point x="326" y="722" type="curve" smooth="yes"/>
      <point x="280" y="722"/>
      <point x="262" y="702"/>
      <point x="262" y="672" type="curve" smooth="yes"/>
      <point x="262" y="646"/>
      <point x="279" y="599"/>
    </contour>
    <contour>
      <point x="411.0" y="45" type="curve" smooth="yes"/>
      <point x="411.0" y="24.0"/>
      <point x="422.0" y="10.0"/>
      <point x="453" y="2" type="curve" smooth="yes"/>
      <point x="481" y="-4.0"/>
      <point x="580" y="-18.0"/>
      <point x="626" y="-18.0" type="curve" smooth="yes"/>
      <point x="669.0" y="-18.0"/>
      <point x="697" y="-11"/>
      <point x="713" y="13" type="curve" smooth="yes"/>
      <point x="732" y="42"/>
      <point x="746.0" y="86"/>
      <point x="746" y="115" type="curve" smooth="yes"/>
      <point x="746.0" y="145.1153846153846"/>
      <point x="736" y="163"/>
      <point x="714" y="173" type="curve" smooth="yes"/>
      <point x="664" y="195"/>
      <point x="556.0" y="211.0"/>
      <point x="487" y="215" type="curve"/>
      <point x="517" y="175" type="line"/>
      <point x="517.0" y="213"/>
      <point x="490" y="242"/>
      <point x="358" y="299" type="curve"/>
      <point x="367" y="265" type="line"/>
      <point x="468" y="353"/>
      <point x="513" y="412"/>
      <point x="513" y="490" type="curve" smooth="yes"/>
      <point x="513" y="536"/>
      <point x="484" y="565"/>
      <point x="392" y="565" type="curve" smooth="yes"/>
      <point x="272" y="565"/>
      <point x="142" y="546"/>
      <point x="71" y="524" type="curve"/>
      <point x="63" y="496"/>
      <point x="75" y="477"/>
      <point x="100" y="477" type="curve" smooth="yes"/>
      <point x="112" y="477"/>
      <point x="129" y="482"/>
      <point x="154" y="489" type="curve"/>
      <point x="154" y="484"/>
      <point x="154" y="479"/>
      <point x="154" y="473" type="curve" smooth="yes"/>
      <point x="154" y="361"/>
      <point x="193" y="303"/>
      <point x="291" y="255" type="curve"/>
      <point x="285" y="291" type="line"/>
      <point x="175" y="213"/>
      <point x="116" y="142"/>
      <point x="116" y="47" type="curve" smooth="yes"/>
      <point x="116" y="21"/>
      <point x="129" y="-2"/>
      <point x="165" y="-2" type="curve" smooth="yes"/>
      <point x="208" y="-2"/>
      <point x="228" y="14"/>
      <point x="239" y="34" type="curve"/>
      <point x="220" y="47"/>
      <point x="214" y="64"/>
      <point x="214" y="83" type="curve" smooth="yes"/>
      <point x="214.0" y="133.0"/>
      <point x="263.0" y="188.0"/>
      <point x="334" y="242" type="curve"/>
      <point x="387" y="221"/>
      <point x="430" y="198"/>
      <point x="430" y="150" type="curve" smooth="yes"/>
      <point x="430.0" y="121.0"/>
      <point x="411.0" y="66.0"/>
    </contour>
    <contour>
      <point x="491.0" y="62" type="curve" smooth="yes"/>
      <point x="491.0" y="86.0"/>
      <point x="503.8965517241379" y="158.0"/>
      <point x="513" y="158.0" type="curve" smooth="yes"/>
      <point x="562.5503875968992" y="158.0"/>
      <point x="624.7519379844962" y="147.0"/>
      <point x="649" y="135" type="curve" smooth="yes"/>
      <point x="656" y="131"/>
      <point x="660.0" y="124.0"/>
      <point x="660" y="108" type="curve" smooth="yes"/>
      <point x="660.0" y="87"/>
      <point x="654" y="64"/>
      <point x="638" y="48" type="curve" smooth="yes"/>
      <point x="631" y="41"/>
      <point x="623" y="37.0"/>
      <point x="606" y="37" type="curve" smooth="yes"/>
      <point x="581.0" y="37.0"/>
      <point x="536" y="40"/>
      <point x="514" y="43" type="curve" smooth="yes"/>
      <point x="500" y="45"/>
      <point x="491.0" y="50.0"/>
    </contour>
  </outline>
</glyph>
<glyph name="uni133D" format="2">
  <advance width="793"/>
  <unicode hex="133D"/>
  <outline>
    <contour>
      <point x="455" y="423" type="line"/>
      <point x="497.0" y="430.6666666666667"/>
      <point x="581.0" y="442.5151515151515"/>
      <point x="619" y="446" type="curve"/>
      <point x="613" y="469" type="line"/>
      <point x="609" y="393"/>
      <point x="631" y="369"/>
      <point x="682" y="369" type="curve" smooth="yes"/>
      <point x="695" y="369"/>
      <point x="713" y="371"/>
      <point x="725" y="375" type="curve"/>
      <point x="716" y="399"/>
      <point x="712" y="442"/>
      <point x="715" y="469" type="curve"/>
      <point x="684" y="480"/>
      <point x="641" y="492"/>
      <point x="632" y="492" type="curve" smooth="yes"/>
      <point x="609.0" y="492.0"/>
      <point x="495.0" y="474.125"/>
      <point x="454" y="470" type="curve"/>
    </contour>
    <contour>
      <point x="100" y="537" type="curve" smooth="yes"/>
      <point x="112" y="537"/>
      <point x="129" y="542"/>
      <point x="154" y="549" type="curve"/>
      <point x="154" y="544"/>
      <point x="154" y="539"/>
      <point x="154" y="533" type="curve" smooth="yes"/>
      <point x="154" y="452"/>
      <point x="196" y="362"/>
      <point x="291" y="285" type="curve"/>
      <point x="285" y="321" type="line"/>
      <point x="189" y="225"/>
      <point x="116" y="145"/>
      <point x="116" y="47" type="curve" smooth="yes"/>
      <point x="116" y="21"/>
      <point x="129" y="-2"/>
      <point x="165" y="-2" type="curve" smooth="yes"/>
      <point x="208" y="-2"/>
      <point x="228" y="14"/>
      <point x="239" y="34" type="curve"/>
      <point x="220" y="47"/>
      <point x="214" y="64"/>
      <point x="214" y="83" type="curve" smooth="yes"/>
      <point x="214" y="142"/>
      <point x="271" y="204"/>
      <point x="334" y="272" type="curve"/>
      <point x="389" y="251"/>
      <point x="430" y="214"/>
      <point x="430" y="150" type="curve" smooth="yes"/>
      <point x="430" y="94"/>
      <point x="407" y="69"/>
      <point x="407" y="35" type="curve" smooth="yes"/>
      <point x="407" y="9"/>
      <point x="422" y="-7"/>
      <point x="460" y="-7" type="curve" smooth="yes"/>
      <point x="494" y="-7"/>
      <point x="512" y="10"/>
      <point x="517" y="36" type="curve"/>
      <point x="500" y="45"/>
      <point x="500" y="62"/>
      <point x="500" y="73" type="curve" smooth="yes"/>
      <point x="500" y="103"/>
      <point x="510" y="143"/>
      <point x="510" y="178" type="curve" smooth="yes"/>
      <point x="510" y="226"/>
      <point x="486" y="273"/>
      <point x="380" y="320" type="curve"/>
      <point x="449" y="395"/>
      <point x="513" y="475"/>
      <point x="513" y="563" type="curve" smooth="yes"/>
      <point x="513" y="601"/>
      <point x="484" y="625"/>
      <point x="392" y="625" type="curve" smooth="yes"/>
      <point x="272" y="625"/>
      <point x="142" y="606"/>
      <point x="71" y="584" type="curve"/>
      <point x="63" y="556"/>
      <point x="75" y="537"/>
    </contour>
    <contour>
      <point x="345" y="575" type="curve" smooth="yes"/>
      <point x="406" y="575"/>
      <point x="428" y="560"/>
      <point x="428" y="529" type="curve" smooth="yes"/>
      <point x="428" y="477"/>
      <point x="375" y="409"/>
      <point x="298" y="329" type="curve"/>
      <point x="348" y="335" type="line"/>
      <point x="270" y="396"/>
      <point x="234" y="468"/>
      <point x="234" y="529" type="curve" smooth="yes"/>
      <point x="234" y="563"/>
      <point x="256" y="575"/>
    </contour>
  </outline>
</glyph>
<glyph name="uni1354" format="2">
  <advance width="708"/>
  <unicode hex="1354"/>
  <outline>
    <contour>
      <point x="562" y="538" type="curve"/>
      <point x="526" y="566" type="line"/>
      <point x="525" y="507"/>
      <point x="543" y="473"/>
      <point x="596" y="473" type="curve" smooth="yes"/>
      <point x="611" y="473"/>
      <point x="636" y="478"/>
      <point x="648" y="486" type="curve"/>
      <point x="634" y="519"/>
      <point x="631" y="555"/>
      <point x="636" y="579" type="curve"/>
      <point x="616" y="584"/>
      <point x="573" y="591"/>
      <point x="555" y="591" type="curve"/>
      <point x="452" y="581"/>
      <point x="207" y="551"/>
      <point x="124" y="545" type="curve"/>
      <point x="84" y="529"/>
      <point x="60" y="480"/>
      <point x="60" y="447" type="curve" smooth="yes"/>
      <point x="60" y="421"/>
      <point x="77" y="406"/>
      <point x="110" y="406" type="curve" smooth="yes"/>
      <point x="133" y="406"/>
      <point x="151" y="410"/>
      <point x="179" y="422" type="curve"/>
      <point x="170" y="454"/>
      <point x="169" y="500"/>
      <point x="196" y="534" type="curve"/>
      <point x="153" y="495" type="line"/>
      <point x="234" y="503"/>
      <point x="424" y="535"/>
    </contour>
    <contour>
      <point x="226.0" y="52" type="curve" smooth="yes"/>
      <point x="226.0" y="25"/>
      <point x="242.0" y="9"/>
      <point x="284" y="1" type="curve" smooth="yes"/>
      <point x="316" y="-6"/>
      <point x="406" y="-18.0"/>
      <point x="459" y="-18.0" type="curve" smooth="yes"/>
      <point x="499" y="-18.0"/>
      <point x="522" y="-9"/>
      <point x="541" y="13" type="curve" smooth="yes"/>
      <point x="564" y="41"/>
      <point x="572.0" y="86"/>
      <point x="572" y="115" type="curve" smooth="yes"/>
      <point x="572.0" y="145.1153846153846"/>
      <point x="562.0" y="162.96153846153845"/>
      <point x="540" y="173" type="curve" smooth="yes"/>
      <point x="487" y="195.0"/>
      <point x="372" y="211.0"/>
      <point x="298" y="215" type="curve"/>
      <point x="335" y="181" type="line"/>
      <point x="355.0" y="285.0"/>
      <point x="386" y="416"/>
      <point x="418" y="553" type="curve"/>
      <point x="324" y="546" type="line"/>
      <point x="311" y="389"/>
      <point x="226.0" y="137.0"/>
    </contour>
    <contour>
      <point x="317.0" y="71" type="curve" smooth="yes"/>
      <point x="317.0" y="107.0"/>
      <point x="330" y="158.0"/>
      <point x="339" y="158.0" type="curve" smooth="yes"/>
      <point x="390.1278195488722" y="158.0"/>
      <point x="451.4812030075188" y="147.0"/>
      <point x="475" y="135" type="curve" smooth="yes"/>
      <point x="482" y="131"/>
      <point x="486" y="124"/>
      <point x="486" y="108" type="curve" smooth="yes"/>
      <point x="486.0" y="84.0"/>
      <point x="479" y="66"/>
      <point x="468" y="51" type="curve" smooth="yes"/>
      <point x="460" y="41"/>
      <point x="448" y="37.0"/>
      <point x="429" y="37" type="curve" smooth="yes"/>
      <point x="401.0357142857143" y="37.0"/>
      <point x="368.92857142857144" y="38.0"/>
      <point x="342" y="43" type="curve" smooth="yes"/>
      <point x="327" y="46.0"/>
      <point x="317" y="53"/>
    </contour>
  </outline>
</glyph>
<glyph name="uni1368" format="2">
  <advance width="616"/>
  <unicode hex="1368"/>
  <outline>
    <contour>
      <point x="329" y="490" type="curve" smooth="yes"/>
      <point x="351" y="490"/>
      <point x="387" y="493"/>
      <point x="400" y="504" type="curve"/>
      <point x="400" y="522"/>
      <point x="414" y="555"/>
      <point x="414" y="573" type="curve" smooth="yes"/>
      <point x="414" y="586"/>
      <point x="405" y="594"/>
      <point x="383" y="594" type="curve" smooth="yes"/>
      <point x="367" y="594"/>
      <point x="332" y="587"/>
      <point x="312" y="578" type="curve"/>
      <point x="312" y="555"/>
      <point x="298" y="535"/>
      <point x="298" y="518" type="curve" smooth="yes"/>
      <point x="298" y="499"/>
      <point x="310" y="490"/>
    </contour>
    <contour>
      <point x="282" y="257" type="curve" smooth="yes"/>
      <point x="304" y="257"/>
      <point x="340" y="260"/>
      <point x="353" y="271" type="curve"/>
      <point x="353" y="289"/>
      <point x="367" y="322"/>
      <point x="367" y="340" type="curve" smooth="yes"/>
      <point x="367" y="353"/>
      <point x="358" y="361"/>
      <point x="336" y="361" type="curve" smooth="yes"/>
      <point x="320" y="361"/>
      <point x="285" y="354"/>
      <point x="265" y="345" type="curve"/>
      <point x="265" y="322"/>
      <point x="251" y="302"/>
      <point x="251" y="285" type="curve" smooth="yes"/>
      <point x="251" y="266"/>
      <point x="263" y="257"/>
    </contour>
    <contour>
      <point x="235" y="24" type="curve" smooth="yes"/>
      <point x="257" y="24"/>
      <point x="293" y="27"/>
      <point x="306" y="38" type="curve"/>
      <point x="306" y="56"/>
      <point x="320" y="89"/>
      <point x="320" y="107" type="curve" smooth="yes"/>
      <point x="320" y="120"/>
      <point x="311" y="128"/>
      <point x="289" y="128" type="curve" smooth="yes"/>
      <point x="273" y="128"/>
      <point x="238" y="121"/>
      <point x="218" y="112" type="curve"/>
      <point x="218" y="89"/>
      <point x="204" y="69"/>
      <point x="204" y="52" type="curve" smooth="yes"/>
      <point x="204" y="33"/>
      <point x="216" y="24"/>
    </contour>
    <contour>
      <point x="130" y="361" type="curve" smooth="yes"/>
      <point x="152" y="361"/>
      <point x="188" y="364"/>
      <point x="201" y="375" type="curve"/>
      <point x="201" y="393"/>
      <point x="215" y="426"/>
      <point x="215" y="444" type="curve" smooth="yes"/>
      <point x="215" y="457"/>
      <point x="206" y="465"/>
      <point x="184" y="465" type="curve" smooth="yes"/>
      <point x="168" y="465"/>
      <point x="133" y="458"/>
      <point x="113" y="449" type="curve"/>
      <point x="113" y="426"/>
      <point x="99" y="406"/>
      <point x="99" y="389" type="curve" smooth="yes"/>
      <point x="99" y="370"/>
      <point x="111" y="361"/>
    </contour>
    <contour>
      <point x="83" y="128" type="curve" smooth="yes"/>
      <point x="105" y="128"/>
      <point x="141" y="131"/>
      <point x="154" y="142" type="curve"/>
      <point x="154" y="160"/>
      <point x="168" y="193"/>
      <point x="168" y="211" type="curve" smooth="yes"/>
      <point x="168" y="224"/>
      <point x="159" y="232"/>
      <point x="137" y="232" type="curve" smooth="yes"/>
      <point x="121" y="232"/>
      <point x="86" y="225"/>
      <point x="66" y="216" type="curve"/>
      <point x="66" y="193"/>
      <point x="52" y="173"/>
      <point x="52" y="156" type="curve" smooth="yes"/>
      <point x="52" y="137"/>
      <point x="64" y="128"/>
    </contour>
    <contour>
      <point x="481" y="373" type="curve" smooth="yes"/>
      <point x="503" y="373"/>
      <point x="539" y="376"/>
      <point x="552" y="387" type="curve"/>
      <point x="552" y="405"/>
      <point x="566" y="438"/>
      <point x="566" y="456" type="curve" smooth="yes"/>
      <point x="566" y="469"/>
      <point x="557" y="477"/>
      <point x="535" y="477" type="curve" smooth="yes"/>
      <point x="519" y="477"/>
      <point x="484" y="470"/>
      <point x="464" y="461" type="curve"/>
      <point x="464" y="438"/>
      <point x="450" y="418"/>
      <point x="450" y="401" type="curve" smooth="yes"/>
      <point x="450" y="382"/>
      <point x="462" y="373"/>
    </contour>
    <contour>
      <point x="434" y="140" type="curve" smooth="yes"/>
      <point x="456" y="140"/>
      <point x="492" y="143"/>
      <point x="505" y="154" type="curve"/>
      <point x="505" y="172"/>
      <point x="519" y="205"/>
      <point x="519" y="223" type="curve" smooth="yes"/>
      <point x="519" y="236"/>
      <point x="510" y="244"/>
      <point x="488" y="244" type="curve" smooth="yes"/>
      <point x="472" y="244"/>
      <point x="437" y="237"/>
      <point x="417" y="228" type="curve"/>
      <point x="417" y="205"/>
      <point x="403" y="185"/>
      <point x="403" y="168" type="curve" smooth="yes"/>
      <point x="403" y="149"/>
      <point x="415" y="140"/>
    </contour>
  </outline>
</glyph>
<glyph name="uni1369" format="2">
  <advance width="548"/>
  <unicode hex="1369"/>
  <outline>
    <contour>
      <point x="207" y="56" type="curve" smooth="yes"/>
      <point x="252" y="56"/>
      <point x="280" y="84"/>
      <point x="281" y="131" type="curve"/>
      <point x="235" y="85" type="line"/>
      <point x="347" y="115.0"/>
      <point x="456.0" y="251.0"/>
      <point x="456" y="391" type="curve" smooth="yes"/>
      <point x="456.0" y="457"/>
      <point x="401.0" y="533.0"/>
      <point x="323" y="533" type="curve" smooth="yes"/>
      <point x="169" y="533.0"/>
      <point x="57.0" y="352.0"/>
      <point x="57" y="233" type="curve" smooth="yes"/>
      <point x="57.0" y="132"/>
      <point x="167.0" y="56.0"/>
    </contour>
    <contour>
      <point x="141" y="232" type="curve" smooth="yes"/>
      <point x="141.0" y="335.0"/>
      <point x="232" y="469.0"/>
      <point x="307" y="469" type="curve" smooth="yes"/>
      <point x="341.0" y="469.0"/>
      <point x="372.0" y="426"/>
      <point x="372" y="398" type="curve" smooth="yes"/>
      <point x="372.0" y="273.0"/>
      <point x="256" y="141.0"/>
      <point x="203" y="141" type="curve" smooth="yes"/>
      <point x="179.0" y="141.0"/>
      <point x="141.0" y="186"/>
    </contour>
    <contour>
      <point x="534" y="605" type="curve"/>
      <point x="539" y="614"/>
      <point x="541" y="626"/>
      <point x="541" y="634" type="curve" smooth="yes"/>
      <point x="541" y="656"/>
      <point x="529" y="675"/>
      <point x="493" y="675" type="curve" smooth="yes"/>
      <point x="432" y="675"/>
      <point x="228" y="642"/>
      <point x="95" y="645" type="curve"/>
      <point x="90" y="636"/>
      <point x="88" y="628"/>
      <point x="88" y="620" type="curve" smooth="yes"/>
      <point x="88" y="598"/>
      <point x="100" y="585"/>
      <point x="126" y="585" type="curve" smooth="yes"/>
      <point x="140" y="585"/>
      <point x="455" y="605"/>
    </contour>
    <contour>
      <point x="25" y="-4" type="curve"/>
      <point x="20" y="-13"/>
      <point x="18" y="-25"/>
      <point x="18" y="-33" type="curve" smooth="yes"/>
      <point x="18" y="-55"/>
      <point x="30" y="-74"/>
      <point x="66" y="-74" type="curve" smooth="yes"/>
      <point x="127" y="-74"/>
      <point x="321" y="-41"/>
      <point x="454" y="-44" type="curve"/>
      <point x="459" y="-35"/>
      <point x="461" y="-27"/>
      <point x="461" y="-19" type="curve" smooth="yes"/>
      <point x="461" y="3"/>
      <point x="449" y="16"/>
      <point x="423" y="16" type="curve" smooth="yes"/>
      <point x="409" y="16"/>
      <point x="104" y="-4"/>
    </contour>
  </outline>
</glyph>
<glyph name="uni136A" format="2">
  <advance width="561"/>
  <unicode hex="136A"/>
  <outline>
    <contour>
      <point x="147" y="167" type="curve" smooth="yes"/>
      <point x="147.0" y="210.73333333333332"/>
      <point x="198.0" y="279.4571428571429"/>
      <point x="198" y="331" type="curve" smooth="yes"/>
      <point x="198.0" y="373.47058823529414"/>
      <point x="188.0" y="403.6470588235294"/>
      <point x="188" y="426" type="curve" smooth="yes"/>
      <point x="188.0" y="456.6111111111111"/>
      <point x="214.0" y="483.0"/>
      <point x="313" y="483" type="curve" smooth="yes"/>
      <point x="363.0" y="483.0"/>
      <point x="378.0" y="466.8157894736842"/>
      <point x="378" y="442" type="curve" smooth="yes"/>
      <point x="378.0" y="406.44117647058823"/>
      <point x="334.0" y="383.5"/>
      <point x="301" y="364" type="curve" smooth="yes"/>
      <point x="277" y="351"/>
      <point x="262" y="343"/>
      <point x="262" y="322" type="curve" smooth="yes"/>
      <point x="262" y="298"/>
      <point x="274" y="281"/>
      <point x="289" y="278" type="curve" smooth="yes"/>
      <point x="375" y="261"/>
      <point x="400.0" y="247"/>
      <point x="400" y="216" type="curve" smooth="yes"/>
      <point x="400" y="156"/>
      <point x="303.0" y="121.0"/>
      <point x="207" y="121" type="curve" smooth="yes"/>
      <point x="156.0" y="121.0"/>
      <point x="147.0" y="145"/>
    </contour>
    <contour>
      <point x="179" y="55" type="curve" smooth="yes"/>
      <point x="295.0" y="55.0"/>
      <point x="482.0" y="119.9468085106383"/>
      <point x="482" y="240" type="curve" smooth="yes"/>
      <point x="482.0" y="277.1612903225806"/>
      <point x="456.0" y="303.6144578313253"/>
      <point x="348" y="336" type="curve"/>
      <point x="337" y="318" type="line"/>
      <point x="404.0" y="353.5581395348837"/>
      <point x="464.0" y="400.968992248062"/>
      <point x="464" y="457" type="curve" smooth="yes"/>
      <point x="464.0" y="500.7260273972603"/>
      <point x="437.0" y="533.0"/>
      <point x="337" y="533" type="curve" smooth="yes"/>
      <point x="194.0" y="533.0"/>
      <point x="109.0" y="496.85869565217394"/>
      <point x="109" y="438" type="curve" smooth="yes"/>
      <point x="109.0" y="419.3809523809524"/>
      <point x="122.0" y="383.23809523809524"/>
      <point x="122" y="323" type="curve" smooth="yes"/>
      <point x="122.0" y="266.6037735849057"/>
      <point x="63.0" y="197.3905325443787"/>
      <point x="63" y="140" type="curve" smooth="yes"/>
      <point x="63.0" y="99"/>
      <point x="91.0" y="55.0"/>
    </contour>
    <contour>
      <point x="538" y="605" type="curve"/>
      <point x="543" y="614"/>
      <point x="545" y="626"/>
      <point x="545" y="634" type="curve" smooth="yes"/>
      <point x="545" y="656"/>
      <point x="533" y="675"/>
      <point x="497" y="675" type="curve" smooth="yes"/>
      <point x="436" y="675"/>
      <point x="232" y="642"/>
      <point x="99" y="645" type="curve"/>
      <point x="94" y="636"/>
      <point x="92" y="628"/>
      <point x="92" y="620" type="curve" smooth="yes"/>
      <point x="92" y="598"/>
      <point x="104" y="585"/>
      <point x="130" y="585" type="curve" smooth="yes"/>
      <point x="144" y="585"/>
      <point x="459" y="605"/>
    </contour>
    <contour>
      <point x="29" y="-4" type="curve"/>
      <point x="24" y="-13"/>
      <point x="22" y="-25"/>
      <point x="22" y="-33" type="curve" smooth="yes"/>
      <point x="22" y="-55"/>
      <point x="34" y="-74"/>
      <point x="70" y="-74" type="curve" smooth="yes"/>
      <point x="131" y="-74"/>
      <point x="325" y="-41"/>
      <point x="458" y="-44" type="curve"/>
      <point x="463" y="-35"/>
      <point x="465" y="-27"/>
      <point x="465" y="-19" type="curve" smooth="yes"/>
      <point x="465" y="3"/>
      <point x="453" y="16"/>
      <point x="427" y="16" type="curve" smooth="yes"/>
      <point x="413" y="16"/>
      <point x="108" y="-4"/>
    </contour>
  </outline>
</glyph>
<glyph name="uni136E" format="2">
  <advance width="580"/>
  <unicode hex="136E"/>
  <outline>
    <contour>
      <point x="533" y="605" type="curve"/>
      <point x="538" y="614"/>
      <point x="540" y="626"/>
      <point x="540" y="634" type="curve" smooth="yes"/>
      <point x="540" y="656"/>
      <point x="528" y="675"/>
      <point x="492" y="675" type="curve" smooth="yes"/>
      <point x="431" y="675"/>
      <point x="227" y="642"/>
      <point x="94" y="645" type="curve"/>
      <point x="89" y="636"/>
      <point x="87" y="628"/>
      <point x="87" y="620" type="curve" smooth="yes"/>
      <point x="87" y="598"/>
      <point x="99" y="585"/>
      <point x="125" y="585" type="curve" smooth="yes"/>
      <point x="139" y="585"/>
      <point x="454" y="605"/>
    </contour>
    <contour>
      <point x="24" y="-4" type="curve"/>
      <point x="19" y="-13"/>
      <point x="17" y="-25"/>
      <point x="17" y="-33" type="curve" smooth="yes"/>
      <point x="17" y="-55"/>
      <point x="29" y="-74"/>
      <point x="65" y="-74" type="curve" smooth="yes"/>
      <point x="126" y="-74"/>
      <point x="320" y="-41"/>
      <point x="453" y="-44" type="curve"/>
      <point x="458" y="-35"/>
      <point x="460" y="-27"/>
      <point x="460" y="-19" type="curve" smooth="yes"/>
      <point x="460" y="3"/>
      <point x="448" y="16"/>
      <point x="422" y="16" type="curve" smooth="yes"/>
      <point x="408" y="16"/>
      <point x="103" y="-4"/>
    </contour>
    <contour>
      <point x="573" y="116" type="curve"/>
      <point x="564" y="140"/>
      <point x="560" y="183"/>
      <point x="563" y="210" type="curve"/>
      <point x="530" y="222"/>
      <point x="485" y="237"/>
      <point x="475" y="237" type="curve" smooth="yes"/>
      <point x="457" y="237"/>
      <point x="360" y="210"/>
      <point x="323" y="210" type="curve" smooth="yes"/>
      <point x="308" y="210"/>
      <point x="300" y="215"/>
      <point x="300" y="229" type="curve" smooth="yes"/>
      <point x="300" y="267.0"/>
      <point x="379" y="342.0"/>
      <point x="379" y="403" type="curve" smooth="yes"/>
      <point x="379" y="448"/>
      <point x="347.0" y="464.0"/>
      <point x="272" y="464" type="curve" smooth="yes"/>
      <point x="208" y="464"/>
      <point x="153" y="445"/>
      <point x="73" y="414" type="curve"/>
      <point x="130" y="425" type="line"/>
      <point x="109" y="432"/>
      <point x="91" y="436"/>
      <point x="76" y="436" type="curve" smooth="yes"/>
      <point x="28" y="436"/>
      <point x="10" y="407"/>
      <point x="10" y="365" type="curve" smooth="yes"/>
      <point x="10" y="325"/>
      <point x="23" y="311"/>
      <point x="73" y="309" type="curve" smooth="yes"/>
      <point x="90" y="308"/>
      <point x="109" y="310"/>
      <point x="130" y="318" type="curve"/>
      <point x="127" y="330"/>
      <point x="125" y="340"/>
      <point x="125" y="351" type="curve" smooth="yes"/>
      <point x="125" y="366"/>
      <point x="129" y="385"/>
      <point x="143" y="417" type="curve"/>
      <point x="97" y="370" type="line"/>
      <point x="155" y="399"/>
      <point x="191" y="414"/>
      <point x="240" y="414" type="curve" smooth="yes"/>
      <point x="273" y="414"/>
      <point x="289" y="404"/>
      <point x="289" y="387" type="curve" smooth="yes"/>
      <point x="289" y="336.0"/>
      <point x="200" y="270.0"/>
      <point x="200" y="201" type="curve" smooth="yes"/>
      <point x="200" y="169"/>
      <point x="220.0" y="149.0"/>
      <point x="254" y="149" type="curve" smooth="yes"/>
      <point x="286" y="149"/>
      <point x="398" y="173"/>
      <point x="462" y="187" type="curve"/>
      <point x="456" y="210" type="line"/>
      <point x="455" y="134"/>
      <point x="475" y="110"/>
      <point x="530" y="110" type="curve" smooth="yes"/>
      <point x="543" y="110"/>
      <point x="561" y="112"/>
    </contour>
  </outline>
</glyph>
<glyph name="uni1372" format="2">
  <advance width="527"/>
  <unicode hex="1372"/>
  <outline>
    <contour>
      <point x="128" y="61" type="curve"/>
      <point x="181" y="64"/>
      <point x="230" y="64"/>
      <point x="258" y="57" type="curve"/>
      <point x="273" y="84"/>
      <point x="272" y="122"/>
      <point x="210" y="122" type="curve" smooth="yes"/>
      <point x="189" y="122"/>
      <point x="155" y="119"/>
      <point x="139" y="114" type="curve" smooth="yes"/>
      <point x="120" y="109"/>
      <point x="111" y="81"/>
    </contour>
    <contour>
      <point x="248" y="99" type="line"/>
      <point x="258.23809523809524" y="230.45945945945945"/>
      <point x="289" y="329"/>
      <point x="334" y="441" type="curve"/>
      <point x="354" y="452"/>
      <point x="366" y="458"/>
      <point x="366" y="474" type="curve" smooth="yes"/>
      <point x="366" y="501"/>
      <point x="296" y="532"/>
      <point x="248" y="532" type="curve" smooth="yes"/>
      <point x="220" y="532"/>
      <point x="208" y="508"/>
      <point x="214" y="490" type="curve"/>
      <point x="238" y="482"/>
      <point x="250" y="473"/>
      <point x="250" y="454" type="curve" smooth="yes"/>
      <point x="250.0" y="413"/>
      <point x="156.0" y="155.6638655462185"/>
      <point x="156" y="88" type="curve"/>
    </contour>
    <contour>
      <point x="516" y="605" type="curve"/>
      <point x="521" y="614"/>
      <point x="523" y="626"/>
      <point x="523" y="634" type="curve" smooth="yes"/>
      <point x="523" y="656"/>
      <point x="511" y="675"/>
      <point x="475" y="675" type="curve" smooth="yes"/>
      <point x="414" y="675"/>
      <point x="210" y="642"/>
      <point x="77" y="645" type="curve"/>
      <point x="72" y="636"/>
      <point x="70" y="628"/>
      <point x="70" y="620" type="curve" smooth="yes"/>
      <point x="70" y="598"/>
      <point x="82" y="585"/>
      <point x="108" y="585" type="curve" smooth="yes"/>
      <point x="122" y="585"/>
      <point x="437" y="605"/>
    </contour>
    <contour>
      <point x="7" y="-4" type="curve"/>
      <point x="2" y="-13"/>
      <point x="0" y="-25"/>
      <point x="0" y="-33" type="curve" smooth="yes"/>
      <point x="0" y="-55"/>
      <point x="12" y="-74"/>
      <point x="48" y="-74" type="curve" smooth="yes"/>
      <point x="109" y="-74"/>
      <point x="303" y="-41"/>
      <point x="436" y="-44" type="curve"/>
      <point x="441" y="-35"/>
      <point x="443" y="-27"/>
      <point x="443" y="-19" type="curve" smooth="yes"/>
      <point x="443" y="3"/>
      <point x="431" y="16"/>
      <point x="405" y="16" type="curve" smooth="yes"/>
      <point x="391" y="16"/>
      <point x="86" y="-4"/>
    </contour>
  </outline>
</glyph>
<glyph name="uni1375" format="2">
  <advance width="715"/>
  <unicode hex="1375"/>
  <outline>
    <contour>
      <point x="554" y="104" type="curve"/>
      <point x="538" y="111"/>
      <point x="532" y="123"/>
      <point x="532" y="141" type="curve" smooth="yes"/>
      <point x="532.0" y="159"/>
      <point x="557.3478260869565" y="202.3095238095238"/>
      <point x="585" y="244" type="curve" smooth="yes"/>
      <point x="605.7407407407408" y="274.0934579439252"/>
      <point x="697.0" y="423"/>
      <point x="697" y="474" type="curve" smooth="yes"/>
      <point x="697" y="517"/>
      <point x="675" y="533"/>
      <point x="641" y="533" type="curve" smooth="yes"/>
      <point x="610" y="533"/>
      <point x="581" y="513"/>
      <point x="576" y="485" type="curve"/>
      <point x="590" y="478"/>
      <point x="598" y="458"/>
      <point x="597" y="428" type="curve" smooth="yes"/>
      <point x="594" y="387"/>
      <point x="542.4634146341464" y="304.0"/>
      <point x="511" y="304" type="curve" smooth="yes"/>
      <point x="476.22033898305085" y="304.0"/>
      <point x="411" y="348"/>
      <point x="397" y="447" type="curve"/>
      <point x="342" y="448" type="line"/>
      <point x="342.0" y="367"/>
      <point x="283.4594594594595" y="215.0"/>
      <point x="190" y="215" type="curve" smooth="yes"/>
      <point x="158" y="215"/>
      <point x="141" y="242"/>
      <point x="141" y="295" type="curve" smooth="yes"/>
      <point x="141.0" y="327.26666666666665"/>
      <point x="150" y="363"/>
      <point x="175" y="416" type="curve"/>
      <point x="189" y="424"/>
      <point x="202" y="435"/>
      <point x="202" y="450" type="curve" smooth="yes"/>
      <point x="202" y="479"/>
      <point x="153" y="514"/>
      <point x="99" y="514" type="curve" smooth="yes"/>
      <point x="57" y="514"/>
      <point x="51" y="491"/>
      <point x="51" y="466" type="curve"/>
      <point x="62" y="461"/>
      <point x="76" y="452"/>
      <point x="90" y="441" type="curve"/>
      <point x="90.0" y="401"/>
      <point x="55.0" y="310.97452229299364"/>
      <point x="55" y="268" type="curve" smooth="yes"/>
      <point x="55" y="191"/>
      <point x="88" y="157"/>
      <point x="167" y="157" type="curve" smooth="yes"/>
      <point x="235" y="157"/>
      <point x="322" y="213"/>
      <point x="386" y="355" type="curve" smooth="yes"/>
      <point x="405.4117647058824" y="399.019801980198"/>
      <point x="441.0" y="441"/>
      <point x="441" y="472" type="curve" smooth="yes"/>
      <point x="441" y="505"/>
      <point x="415" y="522"/>
      <point x="384" y="522" type="curve" smooth="yes"/>
      <point x="357" y="522"/>
      <point x="340" y="510"/>
      <point x="332" y="498" type="curve"/>
      <point x="339" y="367"/>
      <point x="422.0529100529101" y="231.0"/>
      <point x="517" y="231" type="curve"/>
      <point x="515" y="266" type="line"/>
      <point x="451.6578947368421" y="184.85714285714283"/>
      <point x="432.0" y="137"/>
      <point x="432" y="114" type="curve" smooth="yes"/>
      <point x="432" y="77"/>
      <point x="457" y="55"/>
      <point x="487" y="55" type="curve" smooth="yes"/>
      <point x="525" y="55"/>
      <point x="541" y="75"/>
    </contour>
    <contour>
      <point x="79" y="-4" type="curve"/>
      <point x="74" y="-13"/>
      <point x="72" y="-25"/>
      <point x="72" y="-33" type="curve" smooth="yes"/>
      <point x="72" y="-55"/>
      <point x="84" y="-74"/>
      <point x="120" y="-74" type="curve" smooth="yes"/>
      <point x="181" y="-74"/>
      <point x="375" y="-41"/>
      <point x="508" y="-44" type="curve"/>
      <point x="513" y="-35"/>
      <point x="515" y="-27"/>
      <point x="515" y="-19" type="curve" smooth="yes"/>
      <point x="515" y="3"/>
      <point x="503" y="16"/>
      <point x="477" y="16" type="curve" smooth="yes"/>
      <point x="463" y="16"/>
      <point x="158" y="-4"/>
    </contour>
    <contour>
      <point x="582" y="605" type="curve"/>
      <point x="587" y="614"/>
      <point x="589" y="626"/>
      <point x="589" y="634" type="curve" smooth="yes"/>
      <point x="589" y="656"/>
      <point x="577" y="675"/>
      <point x="541" y="675" type="curve" smooth="yes"/>
      <point x="480" y="675"/>
      <point x="276" y="642"/>
      <point x="143" y="645" type="curve"/>
      <point x="138" y="636"/>
      <point x="136" y="628"/>
      <point x="136" y="620" type="curve" smooth="yes"/>
      <point x="136" y="598"/>
      <point x="148" y="585"/>
      <point x="174" y="585" type="curve" smooth="yes"/>
      <point x="188" y="585"/>
      <point x="503" y="605"/>
    </contour>
  </outline>
</glyph>
<glyph name="uni1377" format="2">
  <advance width="637"/>
  <unicode hex="1377"/>
  <outline>
    <contour>
      <point x="515" y="481" type="curve"/>
      <point x="479" y="509" type="line"/>
      <point x="478" y="450"/>
      <point x="496" y="416"/>
      <point x="549" y="416" type="curve" smooth="yes"/>
      <point x="564" y="416"/>
      <point x="589" y="421"/>
      <point x="601" y="429" type="curve"/>
      <point x="587" y="462"/>
      <point x="584" y="498"/>
      <point x="589" y="522" type="curve"/>
      <point x="569" y="527"/>
      <point x="526" y="534"/>
      <point x="508" y="534" type="curve"/>
      <point x="415" y="530"/>
      <point x="194" y="518"/>
      <point x="119" y="512" type="curve"/>
      <point x="79" y="496"/>
      <point x="55" y="447"/>
      <point x="55" y="414" type="curve" smooth="yes"/>
      <point x="55" y="394"/>
      <point x="72" y="383"/>
      <point x="105" y="383" type="curve" smooth="yes"/>
      <point x="128" y="383"/>
      <point x="146" y="387"/>
      <point x="174" y="399" type="curve"/>
      <point x="165" y="428"/>
      <point x="164" y="470"/>
      <point x="191" y="501" type="curve"/>
      <point x="148" y="462" type="line"/>
      <point x="221" y="470"/>
      <point x="384" y="481"/>
    </contour>
    <contour>
      <point x="345" y="299" type="curve" smooth="yes"/>
      <point x="345" y="287"/>
      <point x="289" y="210"/>
      <point x="289" y="197" type="curve" smooth="yes"/>
      <point x="289" y="176"/>
      <point x="300" y="161"/>
      <point x="336" y="161" type="curve" smooth="yes"/>
      <point x="352" y="161"/>
      <point x="377" y="164"/>
      <point x="393" y="172" type="curve"/>
      <point x="391" y="182"/>
      <point x="389" y="192"/>
      <point x="389" y="207" type="curve" smooth="yes"/>
      <point x="389" y="231"/>
      <point x="436" y="317"/>
      <point x="436" y="333" type="curve" smooth="yes"/>
      <point x="436" y="356"/>
      <point x="427" y="364"/>
      <point x="398" y="364" type="curve" smooth="yes"/>
      <point x="336" y="364"/>
      <point x="329" y="369"/>
      <point x="329" y="389" type="curve" smooth="yes"/>
      <point x="329" y="407"/>
      <point x="363" y="469"/>
      <point x="373" y="499" type="curve"/>
      <point x="279" y="492" type="line"/>
      <point x="276" y="458"/>
      <point x="237" y="388"/>
      <point x="237" y="360" type="curve" smooth="yes"/>
      <point x="237" y="340"/>
      <point x="251" y="323"/>
      <point x="282" y="323" type="curve" smooth="yes"/>
      <point x="334" y="323"/>
      <point x="345" y="318"/>
    </contour>
    <contour>
      <point x="491" y="154" type="curve"/>
      <point x="455" y="182" type="line"/>
      <point x="454" y="123"/>
      <point x="472" y="89"/>
      <point x="525" y="89" type="curve" smooth="yes"/>
      <point x="540" y="89"/>
      <point x="565" y="94"/>
      <point x="577" y="102" type="curve"/>
      <point x="563" y="135"/>
      <point x="560" y="171"/>
      <point x="565" y="195" type="curve"/>
      <point x="545" y="200"/>
      <point x="502" y="207"/>
      <point x="484" y="207" type="curve"/>
      <point x="391" y="203"/>
      <point x="170" y="191"/>
      <point x="95" y="185" type="curve"/>
      <point x="55" y="169"/>
      <point x="31" y="120"/>
      <point x="31" y="87" type="curve" smooth="yes"/>
      <point x="31" y="67"/>
      <point x="48" y="56"/>
      <point x="81" y="56" type="curve" smooth="yes"/>
      <point x="104" y="56"/>
      <point x="122" y="60"/>
      <point x="150" y="72" type="curve"/>
      <point x="141" y="101"/>
      <point x="140" y="143"/>
      <point x="167" y="174" type="curve"/>
      <point x="124" y="135" type="line"/>
      <point x="197" y="143"/>
      <point x="360" y="154"/>
    </contour>
    <contour>
      <point x="582" y="605" type="curve"/>
      <point x="587" y="614"/>
      <point x="589" y="626"/>
      <point x="589" y="634" type="curve" smooth="yes"/>
      <point x="589" y="656"/>
      <point x="577" y="675"/>
      <point x="541" y="675" type="curve" smooth="yes"/>
      <point x="480" y="675"/>
      <point x="276" y="642"/>
      <point x="143" y="645" type="curve"/>
      <point x="138" y="636"/>
      <point x="136" y="628"/>
      <point x="136" y="620" type="curve" smooth="yes"/>
      <point x="136" y="598"/>
      <point x="148" y="585"/>
      <point x="174" y="585" type="curve" smooth="yes"/>
      <point x="188" y="585"/>
      <point x="503" y="605"/>
    </contour>
    <contour>
      <point x="73" y="-4" type="curve"/>
      <point x="68" y="-13"/>
      <point x="66" y="-25"/>
      <point x="66" y="-33" type="curve" smooth="yes"/>
      <point x="66" y="-55"/>
      <point x="78" y="-74"/>
      <point x="114" y="-74" type="curve" smooth="yes"/>
      <point x="175" y="-74"/>
      <point x="369" y="-41"/>
      <point x="502" y="-44" type="curve"/>
      <point x="507" y="-35"/>
      <point x="509" y="-27"/>
      <point x="509" y="-19" type="curve" smooth="yes"/>
      <point x="509" y="3"/>
      <point x="497" y="16"/>
      <point x="471" y="16" type="curve" smooth="yes"/>
      <point x="457" y="16"/>
      <point x="152" y="-4"/>
    </contour>
  </outline>
</glyph>
<glyph name="uni1379" format="2">
  <advance width="646"/>
  <unicode hex="1379"/>
  <outline>
    <contour>
      <point x="228" y="511" type="line"/>
      <point x="215.26956521739132" y="398.85340314136124"/>
      <point x="106.0" y="131"/>
      <point x="106" y="91" type="curve" smooth="yes"/>
      <point x="106" y="70"/>
      <point x="117" y="55"/>
      <point x="153" y="55" type="curve" smooth="yes"/>
      <point x="169" y="55"/>
      <point x="194" y="58"/>
      <point x="210" y="66" type="curve"/>
      <point x="208" y="76"/>
      <point x="206" y="86"/>
      <point x="206" y="101" type="curve" smooth="yes"/>
      <point x="206.0" y="175"/>
      <point x="287.9449541284404" y="422.2770448548813"/>
      <point x="322" y="518" type="curve"/>
    </contour>
    <contour>
      <point x="556" y="479" type="curve"/>
      <point x="520" y="507" type="line"/>
      <point x="519" y="448"/>
      <point x="537" y="414"/>
      <point x="590" y="414" type="curve" smooth="yes"/>
      <point x="605" y="414"/>
      <point x="630" y="419"/>
      <point x="642" y="427" type="curve"/>
      <point x="628" y="460"/>
      <point x="625" y="496"/>
      <point x="630" y="520" type="curve"/>
      <point x="610" y="525"/>
      <point x="567" y="532"/>
      <point x="549" y="532" type="curve"/>
      <point x="439" y="528"/>
      <point x="179" y="516"/>
      <point x="90" y="510" type="curve"/>
      <point x="50" y="494"/>
      <point x="26" y="445"/>
      <point x="26" y="412" type="curve" smooth="yes"/>
      <point x="26" y="386"/>
      <point x="43" y="371"/>
      <point x="76" y="371" type="curve" smooth="yes"/>
      <point x="99" y="371"/>
      <point x="117" y="375"/>
      <point x="145" y="387" type="curve"/>
      <point x="136" y="419"/>
      <point x="135" y="465"/>
      <point x="162" y="499" type="curve"/>
      <point x="119" y="460" type="line"/>
      <point x="206" y="468"/>
      <point x="400" y="479"/>
    </contour>
    <contour>
      <point x="400" y="511" type="line"/>
      <point x="388.26666666666665" y="411.87425149700596"/>
      <point x="288.0" y="174"/>
      <point x="288" y="139" type="curve" smooth="yes"/>
      <point x="288" y="118"/>
      <point x="299" y="103"/>
      <point x="335" y="103" type="curve" smooth="yes"/>
      <point x="351" y="103"/>
      <point x="376" y="106"/>
      <point x="392" y="114" type="curve"/>
      <point x="390" y="124"/>
      <point x="388" y="134"/>
      <point x="388" y="149" type="curve" smooth="yes"/>
      <point x="388.0" y="215"/>
      <point x="462.9494949494949" y="433.2749244712991"/>
      <point x="494" y="518" type="curve"/>
    </contour>
    <contour>
      <point x="575" y="605" type="curve"/>
      <point x="580" y="614"/>
      <point x="582" y="626"/>
      <point x="582" y="634" type="curve" smooth="yes"/>
      <point x="582" y="656"/>
      <point x="570" y="675"/>
      <point x="534" y="675" type="curve" smooth="yes"/>
      <point x="473" y="675"/>
      <point x="269" y="642"/>
      <point x="136" y="645" type="curve"/>
      <point x="131" y="636"/>
      <point x="129" y="628"/>
      <point x="129" y="620" type="curve" smooth="yes"/>
      <point x="129" y="598"/>
      <point x="141" y="585"/>
      <point x="167" y="585" type="curve" smooth="yes"/>
      <point x="181" y="585"/>
      <point x="496" y="605"/>
    </contour>
    <contour>
      <point x="66" y="-4" type="curve"/>
      <point x="61" y="-13"/>
      <point x="59" y="-25"/>
      <point x="59" y="-33" type="curve" smooth="yes"/>
      <point x="59" y="-55"/>
      <point x="71" y="-74"/>
      <point x="107" y="-74" type="curve" smooth="yes"/>
      <point x="168" y="-74"/>
      <point x="362" y="-41"/>
      <point x="495" y="-44" type="curve"/>
      <point x="500" y="-35"/>
      <point x="502" y="-27"/>
      <point x="502" y="-19" type="curve" smooth="yes"/>
      <point x="502" y="3"/>
      <point x="490" y="16"/>
      <point x="464" y="16" type="curve" smooth="yes"/>
      <point x="450" y="16"/>
      <point x="145" y="-4"/>
    </contour>
  </outline>
</glyph>
<glyph name="uni137A" format="2">
  <advance width="544"/>
  <unicode hex="137A"/>
  <outline>
    <contour>
      <point x="521" y="605" type="curve"/>
      <point x="526" y="614"/>
      <point x="528" y="626"/>
      <point x="528" y="634" type="curve" smooth="yes"/>
      <point x="528" y="656"/>
      <point x="516" y="675"/>
      <point x="480" y="675" type="curve" smooth="yes"/>
      <point x="419" y="675"/>
      <point x="215" y="642"/>
      <point x="82" y="645" type="curve"/>
      <point x="77" y="636"/>
      <point x="75" y="628"/>
      <point x="75" y="620" type="curve" smooth="yes"/>
      <point x="75" y="598"/>
      <point x="87" y="585"/>
      <point x="113" y="585" type="curve" smooth="yes"/>
      <point x="127" y="585"/>
      <point x="442" y="605"/>
    </contour>
    <contour>
      <point x="12" y="-4" type="curve"/>
      <point x="7" y="-13"/>
      <point x="5" y="-25"/>
      <point x="5" y="-33" type="curve" smooth="yes"/>
      <point x="5" y="-55"/>
      <point x="17" y="-74"/>
      <point x="53" y="-74" type="curve" smooth="yes"/>
      <point x="114" y="-74"/>
      <point x="308" y="-41"/>
      <point x="441" y="-44" type="curve"/>
      <point x="446" y="-35"/>
      <point x="448" y="-27"/>
      <point x="448" y="-19" type="curve" smooth="yes"/>
      <point x="448" y="3"/>
      <point x="436" y="16"/>
      <point x="410" y="16" type="curve" smooth="yes"/>
      <point x="396" y="16"/>
      <point x="91" y="-4"/>
    </contour>
    <contour>
      <point x="290" y="473" type="curve" smooth="yes"/>
      <point x="290.0" y="454"/>
      <point x="240.0" y="378.0093457943925"/>
      <point x="240" y="352" type="curve" smooth="yes"/>
      <point x="240" y="332"/>
      <point x="254" y="315"/>
      <point x="285" y="315" type="curve" smooth="yes"/>
      <point x="376" y="315"/>
      <point x="400" y="310"/>
      <point x="400" y="291" type="curve" smooth="yes"/>
      <point x="400.0" y="259.3065693430657"/>
      <point x="334" y="146"/>
      <point x="229" y="124" type="curve"/>
      <point x="221" y="112"/>
      <point x="220" y="103"/>
      <point x="220" y="91" type="curve" smooth="yes"/>
      <point x="220" y="64"/>
      <point x="242" y="49"/>
      <point x="270" y="57" type="curve" smooth="yes"/>
      <point x="388" y="88"/>
      <point x="479.0" y="262.0"/>
      <point x="479" y="303" type="curve" smooth="yes"/>
      <point x="479" y="376"/>
      <point x="323" y="340"/>
      <point x="323" y="374" type="curve" smooth="yes"/>
      <point x="323.0" y="401.991452991453"/>
      <point x="385.0" y="483"/>
      <point x="385" y="505" type="curve" smooth="yes"/>
      <point x="385" y="523"/>
      <point x="367" y="533"/>
      <point x="333" y="533" type="curve" smooth="yes"/>
      <point x="263" y="533"/>
      <point x="183" y="525"/>
      <point x="145" y="519" type="curve" smooth="yes"/>
      <point x="116" y="515"/>
      <point x="87" y="486"/>
      <point x="87" y="439" type="curve" smooth="yes"/>
      <point x="87" y="415"/>
      <point x="109" y="395"/>
      <point x="145" y="395" type="curve" smooth="yes"/>
      <point x="156" y="395"/>
      <point x="175" y="397"/>
      <point x="188" y="403" type="curve"/>
      <point x="183" y="430"/>
      <point x="190" y="462"/>
      <point x="199" y="480" type="curve"/>
      <point x="216" y="484"/>
      <point x="233" y="485"/>
      <point x="246" y="485" type="curve" smooth="yes"/>
      <point x="284" y="485"/>
      <point x="290" y="479"/>
    </contour>
  </outline>
</glyph>
<glyph name="uni1390" format="2">
  <advance width="257"/>
  <unicode hex="1390"/>
  <outline>
    <contour>
      <point x="108" y="0" type="curve" smooth="yes"/>
      <point x="130" y="0"/>
      <point x="166" y="3"/>
      <point x="179" y="14" type="curve"/>
      <point x="179" y="32"/>
      <point x="193" y="65"/>
      <point x="193" y="83" type="curve" smooth="yes"/>
      <point x="193" y="96"/>
      <point x="184" y="104"/>
      <point x="162" y="104" type="curve" smooth="yes"/>
      <point x="146" y="104"/>
      <point x="111" y="97"/>
      <point x="91" y="88" type="curve"/>
      <point x="91" y="65"/>
      <point x="77" y="45"/>
      <point x="77" y="28" type="curve" smooth="yes"/>
      <point x="77" y="9"/>
      <point x="89" y="0"/>
    </contour>
  </outline>
</glyph>
<glyph name="uni1391" format="2">
  <advance width="560"/>
  <unicode hex="1391"/>
  <outline>
    <contour>
      <point x="456" y="44" type="curve" smooth="yes"/>
      <point x="456" y="63"/>
      <point x="444" y="96"/>
      <point x="397" y="90" type="curve"/>
      <point x="393" y="47"/>
      <point x="391" y="38"/>
      <point x="389" y="38" type="curve"/>
      <point x="401" y="38"/>
      <point x="411" y="43"/>
      <point x="425" y="77" type="curve" smooth="yes"/>
      <point x="456" y="155"/>
      <point x="490" y="222"/>
      <point x="490" y="245" type="curve" smooth="yes"/>
      <point x="490" y="276"/>
      <point x="468" y="295"/>
      <point x="433" y="295" type="curve" smooth="yes"/>
      <point x="401" y="295"/>
      <point x="383" y="274"/>
      <point x="380" y="246" type="curve"/>
      <point x="388" y="242"/>
      <point x="399" y="235"/>
      <point x="399" y="217" type="curve" smooth="yes"/>
      <point x="399" y="196"/>
      <point x="375" y="125"/>
      <point x="345" y="81" type="curve"/>
      <point x="310" y="70"/>
      <point x="274" y="64"/>
      <point x="234" y="64" type="curve" smooth="yes"/>
      <point x="193" y="64"/>
      <point x="169" y="83"/>
      <point x="169" y="130" type="curve" smooth="yes"/>
      <point x="169" y="145"/>
      <point x="178" y="179"/>
      <point x="186" y="209" type="curve"/>
      <point x="197" y="215"/>
      <point x="204" y="225"/>
      <point x="204" y="241" type="curve" smooth="yes"/>
      <point x="204" y="271"/>
      <point x="154" y="294"/>
      <point x="122" y="294" type="curve" smooth="yes"/>
      <point x="86" y="294"/>
      <point x="79" y="265"/>
      <point x="82" y="244" type="curve"/>
      <point x="99" y="238"/>
      <point x="107" y="231"/>
      <point x="107" y="214" type="curve" smooth="yes"/>
      <point x="107" y="198"/>
      <point x="90" y="141"/>
      <point x="90" y="116" type="curve" smooth="yes"/>
      <point x="90" y="31"/>
      <point x="138" y="-3"/>
      <point x="238" y="-3" type="curve" smooth="yes"/>
      <point x="305" y="-3"/>
      <point x="361" y="10"/>
      <point x="399" y="19" type="curve" smooth="yes"/>
      <point x="446" y="30"/>
      <point x="456" y="37"/>
    </contour>
  </outline>
</glyph>
<glyph name="uni1395" format="2">
  <advance width="879"/>
  <unicode hex="1395"/>
  <outline>
    <contour>
      <point x="680" y="374" type="curve"/>
      <point x="691.8181818181819" y="380.0"/>
      <point x="719.0" y="388.0"/>
      <point x="745" y="388" type="curve" smooth="yes"/>
      <point x="772" y="388"/>
      <point x="781" y="380"/>
      <point x="786" y="365" type="curve" smooth="yes"/>
      <point x="798" y="328"/>
      <point x="802" y="291"/>
      <point x="802" y="255" type="curve" smooth="yes"/>
      <point x="802" y="115"/>
      <point x="496" y="-9"/>
      <point x="94" y="-9" type="curve" smooth="yes"/>
      <point x="53" y="-9"/>
      <point x="41" y="9"/>
      <point x="49" y="46" type="curve"/>
      <point x="458.78176382660683" y="46.0"/>
      <point x="708.0" y="147.0"/>
      <point x="708" y="254" type="curve" smooth="yes"/>
      <point x="708" y="295"/>
      <point x="695" y="334"/>
    </contour>
  </outline>
</glyph>
<glyph name="uni1399" format="2">
  <advance width="514"/>
  <unicode hex="1399"/>
  <outline>
    <contour>
      <point x="340" y="273" type="curve"/>
      <point x="345" y="231"/>
      <point x="380" y="213"/>
      <point x="471" y="229" type="curve"/>
      <point x="466" y="254"/>
      <point x="463" y="279"/>
      <point x="460" y="297" type="curve" smooth="yes"/>
      <point x="458" y="311"/>
      <point x="453" y="315"/>
      <point x="441" y="318" type="curve" smooth="yes"/>
      <point x="421" y="323"/>
      <point x="401" y="328"/>
      <point x="384" y="330" type="curve" smooth="yes"/>
      <point x="365" y="332"/>
      <point x="357" y="332"/>
      <point x="335" y="330" type="curve"/>
      <point x="315" y="327"/>
      <point x="268" y="324"/>
      <point x="214" y="322" type="curve"/>
      <point x="208" y="264" type="line"/>
      <point x="247" y="266"/>
      <point x="294" y="270"/>
    </contour>
    <contour>
      <point x="204" y="50" type="line"/>
      <point x="212" y="177"/>
      <point x="255" y="368"/>
      <point x="290" y="478" type="curve"/>
      <point x="310" y="489"/>
      <point x="322" y="495"/>
      <point x="322" y="511" type="curve" smooth="yes"/>
      <point x="322" y="538"/>
      <point x="249" y="569"/>
      <point x="199" y="569" type="curve" smooth="yes"/>
      <point x="171" y="569"/>
      <point x="159" y="545"/>
      <point x="165" y="527" type="curve"/>
      <point x="189" y="519"/>
      <point x="201" y="510"/>
      <point x="201" y="491" type="curve" smooth="yes"/>
      <point x="201" y="451"/>
      <point x="107" y="104"/>
      <point x="107" y="39" type="curve"/>
    </contour>
    <contour>
      <point x="79" y="12" type="curve"/>
      <point x="101" y="13"/>
      <point x="122" y="14"/>
      <point x="141" y="14" type="curve" smooth="yes"/>
      <point x="171" y="14"/>
      <point x="196" y="12"/>
      <point x="214" y="8" type="curve"/>
      <point x="219" y="17"/>
      <point x="222" y="27"/>
      <point x="222" y="36" type="curve" smooth="yes"/>
      <point x="222" y="56"/>
      <point x="208" y="73"/>
      <point x="166" y="73" type="curve" smooth="yes"/>
      <point x="144" y="73"/>
      <point x="107" y="70"/>
      <point x="90" y="65" type="curve"/>
      <point x="78" y="62"/>
      <point x="70" y="50"/>
      <point x="70" y="36" type="curve" smooth="yes"/>
      <point x="70" y="28"/>
      <point x="73" y="19"/>
    </contour>
  </outline>
</glyph>
<glyph name=".notdef" format="2">
  <advance width="542"/>
  <outline>
    <contour>
      <point x="30" y="782" type="line"/>
      <point x="30" y="-150" type="line"/>
      <point x="512" y="-150" type="line"/>
      <point x="512" y="782" type="line"/>
    </contour>
    <contour>
      <point x="60" y="756" type="line"/>
      <point x="482" y="756" type="line"/>
      <point x="482" y="-124" type="line"/>
      <point x="60" y="-124" type="line"/>
    </contour>
    <contour>
      <point x="401.0" y="-4" type="curve" smooth="yes"/>
      <point x="401.0" y="9"/>
      <point x="396.0" y="17"/>
      <point x="384.0" y="25" type="curve"/>
      <point x="377.0" y="15"/>
      <point x="346.0" y="12"/>
      <point x="308.0" y="9" type="curve"/>
      <point x="265.0" y="58"/>
      <point x="214.0" y="103"/>
      <point x="181.0" y="110" type="curve" smooth="yes"/>
      <point x="164.0" y="113"/>
      <point x="152.0" y="103"/>
      <point x="152.0" y="78" type="curve" smooth="yes"/>
      <point x="152.0" y="55"/>
      <point x="165.0" y="-17"/>
      <point x="168.0" y="-36" type="curve"/>
      <point x="166.0" y="-54"/>
      <point x="175.0" y="-65"/>
      <point x="188.0" y="-65" type="curve"/>
      <point x="193.0" y="-58"/>
      <point x="199.0" y="-53"/>
      <point x="218.0" y="-45" type="curve" smooth="yes"/>
      <point x="268.0" y="-24"/>
      <point x="338.0" y="-21"/>
      <point x="383.0" y="-19" type="curve" smooth="yes"/>
      <point x="394.0" y="-20"/>
      <point x="401.0" y="-15"/>
    </contour>
    <contour>
      <point x="391.0" y="285" type="curve"/>
      <point x="360.0" y="280"/>
      <point x="295.0" y="310"/>
      <point x="256.0" y="319" type="curve" smooth="yes"/>
      <point x="198.0" y="331"/>
      <point x="169.0" y="286"/>
      <point x="169.0" y="252" type="curve" smooth="yes"/>
      <point x="169.0" y="236"/>
      <point x="175.0" y="230"/>
      <point x="185.0" y="228" type="curve" smooth="yes"/>
      <point x="186.0" y="228"/>
      <point x="187.0" y="227"/>
      <point x="188.0" y="227" type="curve"/>
      <point x="221.0" y="145"/>
      <point x="295.0" y="93"/>
      <point x="382.0" y="75" type="curve" smooth="yes"/>
      <point x="396.0" y="72"/>
      <point x="401.0" y="79"/>
      <point x="401.0" y="89" type="curve" smooth="yes"/>
      <point x="401.0" y="98"/>
      <point x="400.0" y="106"/>
      <point x="394.0" y="111" type="curve"/>
      <point x="391.0" y="111"/>
      <point x="381.0" y="113"/>
      <point x="374.0" y="115" type="curve" smooth="yes"/>
      <point x="264.0" y="138"/>
      <point x="202.0" y="207"/>
      <point x="202.0" y="257" type="curve" smooth="yes"/>
      <point x="202.0" y="272"/>
      <point x="223.0" y="292"/>
      <point x="259.0" y="284" type="curve" smooth="yes"/>
      <point x="295.0" y="276"/>
      <point x="348.0" y="254"/>
      <point x="382.0" y="247" type="curve" smooth="yes"/>
      <point x="396.0" y="244"/>
      <point x="403.0" y="249"/>
      <point x="403.0" y="262" type="curve" smooth="yes"/>
      <point x="403.0" y="270"/>
      <point x="398.0" y="280"/>
    </contour>
    <contour>
      <point x="191.0" y="-15" type="curve" smooth="yes"/>
      <point x="185.0" y="-13"/>
      <point x="182.0" y="-7"/>
      <point x="180.0" y="4" type="curve" smooth="yes"/>
      <point x="176.0" y="18"/>
      <point x="173.0" y="47"/>
      <point x="173.0" y="63" type="curve" smooth="yes"/>
      <point x="173.0" y="71"/>
      <point x="178.0" y="76"/>
      <point x="185.0" y="75" type="curve" smooth="yes"/>
      <point x="201.0" y="71"/>
      <point x="247.0" y="41"/>
      <point x="281.0" y="5" type="curve"/>
      <point x="235.0" y="0"/>
      <point x="202.0" y="-17"/>
    </contour>
    <contour>
      <point x="158.0" y="603" type="curve" smooth="yes"/>
      <point x="158.0" y="521"/>
      <point x="178.0" y="450"/>
      <point x="195.0" y="421" type="curve" smooth="yes"/>
      <point x="211.0" y="392"/>
      <point x="227.0" y="381"/>
      <point x="244.0" y="377" type="curve" smooth="yes"/>
      <point x="256.0" y="375"/>
      <point x="268.0" y="376"/>
      <point x="280.0" y="381" type="curve"/>
      <point x="319.0" y="351"/>
      <point x="358.0" y="325"/>
      <point x="381.0" y="320" type="curve" smooth="yes"/>
      <point x="399.0" y="316"/>
      <point x="405.0" y="325"/>
      <point x="405.0" y="338" type="curve" smooth="yes"/>
      <point x="405.0" y="351"/>
      <point x="398.0" y="361"/>
      <point x="384.0" y="364" type="curve"/>
      <point x="383.0" y="361"/>
      <point x="380.0" y="358"/>
      <point x="373.0" y="360" type="curve" smooth="yes"/>
      <point x="359.0" y="363"/>
      <point x="331.0" y="377"/>
      <point x="305.0" y="397" type="curve"/>
      <point x="328.0" y="416"/>
      <point x="343.0" y="446"/>
      <point x="343.0" y="473" type="curve" smooth="yes"/>
      <point x="343.0" y="483"/>
      <point x="333.0" y="493"/>
      <point x="319.0" y="496" type="curve"/>
      <point x="318.0" y="485" type="line"/>
      <point x="283.0" y="510"/>
      <point x="251.0" y="529"/>
      <point x="226.0" y="545" type="curve"/>
      <point x="253.0" y="549"/>
      <point x="291.0" y="547"/>
      <point x="327.0" y="544" type="curve"/>
      <point x="330.0" y="550"/>
      <point x="328.0" y="566"/>
      <point x="325.0" y="572" type="curve" smooth="yes"/>
      <point x="324.0" y="574"/>
      <point x="322.0" y="576"/>
      <point x="319.0" y="577" type="curve"/>
      <point x="286.0" y="646"/>
      <point x="244.0" y="691"/>
      <point x="215.0" y="697" type="curve" smooth="yes"/>
      <point x="177.0" y="705"/>
      <point x="158.0" y="660"/>
    </contour>
    <contour>
      <point x="288.0" y="579" type="curve"/>
      <point x="240.0" y="576"/>
      <point x="199.0" y="576"/>
      <point x="192.0" y="577" type="curve" smooth="yes"/>
      <point x="184.0" y="579"/>
      <point x="178.0" y="585"/>
      <point x="178.0" y="599" type="curve" smooth="yes"/>
      <point x="178.0" y="634"/>
      <point x="197.0" y="665"/>
      <point x="221.0" y="660" type="curve" smooth="yes"/>
      <point x="236.0" y="657"/>
      <point x="269.0" y="631"/>
    </contour>
    <contour>
      <point x="182.0" y="540" type="curve"/>
      <point x="229.0" y="510"/>
      <point x="273.0" y="485"/>
      <point x="297.0" y="467" type="curve" smooth="yes"/>
      <point x="302.0" y="463"/>
      <point x="305.0" y="458"/>
      <point x="305.0" y="455" type="curve" smooth="yes"/>
      <point x="305.0" y="441"/>
      <point x="274.0" y="405"/>
      <point x="246.0" y="411" type="curve" smooth="yes"/>
      <point x="225.0" y="415"/>
      <point x="193.0" y="445"/>
    </contour>
  </outline>
</glyph>
<glyph name="uni1215.ss01" format="2">
  <advance width="898"/>
  <outline>
    <contour>
      <point x="73" y="37" type="curve" smooth="yes"/>
      <point x="73" y="10"/>
      <point x="88" y="-5"/>
      <point x="117" y="-5" type="curve" smooth="yes"/>
      <point x="136" y="-5"/>
      <point x="158" y="-2"/>
      <point x="172" y="3" type="curve"/>
      <point x="171" y="13"/>
      <point x="170" y="22"/>
      <point x="170" y="37" type="curve" smooth="yes"/>
      <point x="170" y="189"/>
      <point x="254" y="273"/>
      <point x="298" y="295" type="curve" smooth="yes"/>
      <point x="351" y="320"/>
      <point x="482" y="328"/>
      <point x="640" y="328" type="curve" smooth="yes"/>
      <point x="698" y="328"/>
      <point x="720" y="305"/>
      <point x="720" y="250" type="curve" smooth="yes"/>
      <point x="720" y="194"/>
      <point x="688" y="82"/>
      <point x="688" y="42" type="curve" smooth="yes"/>
      <point x="688" y="20"/>
      <point x="700" y="7"/>
      <point x="725" y="7" type="curve" smooth="yes"/>
      <point x="745" y="7"/>
      <point x="776" y="15"/>
      <point x="787" y="27" type="curve"/>
      <point x="770" y="114"/>
      <point x="803" y="247"/>
      <point x="803" y="279" type="curve" smooth="yes"/>
      <point x="803" y="360"/>
      <point x="754" y="386"/>
      <point x="670" y="386" type="curve" smooth="yes"/>
      <point x="574" y="386"/>
      <point x="432" y="373"/>
      <point x="293" y="353" type="curve"/>
      <point x="285" y="359"/>
      <point x="277" y="363"/>
      <point x="265" y="363" type="curve" smooth="yes"/>
      <point x="213" y="363"/>
      <point x="73" y="167"/>
    </contour>
    <contour>
      <point x="333" y="7" type="curve"/>
      <point x="379" y="11"/>
      <point x="451" y="10"/>
      <point x="481" y="3" type="curve"/>
      <point x="499" y="26"/>
      <point x="495" y="76"/>
      <point x="448" y="76" type="curve" smooth="yes"/>
      <point x="408" y="76"/>
      <point x="359" y="73"/>
      <point x="339" y="68" type="curve"/>
      <point x="320" y="58"/>
      <point x="316" y="23"/>
    </contour>
    <contour>
      <point x="437" y="41" type="curve"/>
      <point x="468.143" y="104.931"/>
      <point x="546" y="261.906"/>
      <point x="546" y="445" type="curve" smooth="yes"/>
      <point x="546" y="501"/>
      <point x="539" y="556"/>
      <point x="524" y="603" type="curve"/>
      <point x="501" y="576" type="line"/>
      <point x="551" y="578"/>
      <point x="562" y="589"/>
      <point x="562" y="607" type="curve" smooth="yes"/>
      <point x="562" y="639"/>
      <point x="494" y="660"/>
      <point x="438" y="660" type="curve" smooth="yes"/>
      <point x="408" y="660"/>
      <point x="395" y="634"/>
      <point x="402" y="614" type="curve"/>
      <point x="428" y="609"/>
      <point x="435.203" y="598.075"/>
      <point x="441" y="582" type="curve" smooth="yes"/>
      <point x="457.203" y="537.073"/>
      <point x="465" y="491"/>
      <point x="465" y="438" type="curve" smooth="yes"/>
      <point x="465" y="275.288"/>
      <point x="398" y="118"/>
      <point x="363" y="68" type="curve" smooth="yes"/>
      <point x="353.801" y="54.8584"/>
      <point x="345.816" y="42.6897"/>
      <point x="343.224" y="37.4101" type="curve"/>
      <point x="350.855" y="30.0178"/>
      <point x="433.157" y="38.4928"/>
    </contour>
  </outline>
</glyph>
<glyph name="uni12CD.ss01" format="2">
  <advance width="1113"/>
  <outline>
    <contour>
      <point x="95" y="260" type="curve" smooth="yes"/>
      <point x="95" y="131"/>
      <point x="176" y="60"/>
      <point x="301" y="60" type="curve" smooth="yes"/>
      <point x="415" y="60"/>
      <point x="444" y="69"/>
      <point x="490" y="125" type="curve"/>
      <point x="442" y="97" type="line"/>
      <point x="555" y="108"/>
      <point x="659" y="138"/>
      <point x="724" y="203" type="curve" smooth="yes"/>
      <point x="782" y="261"/>
      <point x="816" y="373"/>
      <point x="816" y="457" type="curve" smooth="yes"/>
      <point x="816" y="551"/>
      <point x="752" y="626"/>
      <point x="556" y="626" type="curve" smooth="yes"/>
      <point x="388" y="626"/>
      <point x="267" y="592"/>
      <point x="198" y="525" type="curve" smooth="yes"/>
      <point x="144" y="472"/>
      <point x="95" y="386"/>
    </contour>
    <contour>
      <point x="458" y="199" type="curve" smooth="yes"/>
      <point x="458" y="257"/>
      <point x="508" y="454"/>
      <point x="535" y="537" type="curve" smooth="yes"/>
      <point x="544" y="565"/>
      <point x="559" y="568"/>
      <point x="586" y="568" type="curve" smooth="yes"/>
      <point x="679" y="568"/>
      <point x="729" y="514"/>
      <point x="729" y="448" type="curve" smooth="yes"/>
      <point x="729" y="275"/>
      <point x="603" y="163"/>
      <point x="489" y="163" type="curve" smooth="yes"/>
      <point x="464" y="163"/>
      <point x="458" y="171"/>
    </contour>
    <contour>
      <point x="183" y="276" type="curve" smooth="yes"/>
      <point x="183" y="334"/>
      <point x="198" y="417"/>
      <point x="244" y="476" type="curve" smooth="yes"/>
      <point x="283" y="526"/>
      <point x="350" y="555"/>
      <point x="426" y="555" type="curve" smooth="yes"/>
      <point x="441" y="555"/>
      <point x="450" y="547"/>
      <point x="450" y="531" type="curve" smooth="yes"/>
      <point x="450" y="495"/>
      <point x="367" y="257"/>
      <point x="367" y="168" type="curve" smooth="yes"/>
      <point x="367" y="155"/>
      <point x="368" y="143"/>
      <point x="369" y="133" type="curve"/>
      <point x="360" y="132"/>
      <point x="350" y="131"/>
      <point x="340" y="131" type="curve" smooth="yes"/>
      <point x="227" y="131"/>
      <point x="183" y="185"/>
    </contour>
    <contour>
      <point x="785" y="441.109" type="line"/>
      <point x="827" y="449.109"/>
      <point x="911" y="461.109"/>
      <point x="949" y="464.109" type="curve"/>
      <point x="938" y="487.109" type="line"/>
      <point x="934" y="411.109"/>
      <point x="961" y="387.109"/>
      <point x="1012" y="387.109" type="curve" smooth="yes"/>
      <point x="1025" y="387.109"/>
      <point x="1043" y="389.109"/>
      <point x="1055" y="393.109" type="curve"/>
      <point x="1046" y="417.109"/>
      <point x="1042" y="460.109"/>
      <point x="1045" y="487.109" type="curve"/>
      <point x="1014" y="498.109"/>
      <point x="971" y="516.109"/>
      <point x="962" y="516.109" type="curve" smooth="yes"/>
      <point x="939" y="516.109"/>
      <point x="825" y="496.109"/>
      <point x="784" y="488.109" type="curve"/>
    </contour>
  </outline>
</glyph>
